<svg xmlns="http://www.w3.org/2000/svg" viewBox="0 0 384 282.94"><defs><style>.cls-1{fill:#fff;}.cls-2,.cls-5{fill:#ec1c24;}.cls-3,.cls-4{fill:#9896a4;}.cls-4,.cls-5{fill-rule:evenodd;}.cls-6{fill:#068d00;}</style></defs><title>big-4-logo</title><g id="Layer_2" data-name="Layer 2"><g id="Layer_1-2" data-name="Layer 1"><path class="cls-1" d="M54,119.26H70.37v5.54H65v24H59.28v-24H54Z"/><path class="cls-1" d="M84.08,119.26h5.7V130.4h9.86V119.26h5.68V148.8H99.64v-13H89.78v13h-5.7Z"/><path class="cls-1" d="M121.92,119.26h16.13v5.5H127.5v5.34h10.55v5.4H127.5v7.78h10.55v5.52H121.92Z"/><path class="cls-1" d="M174.5,148.8V119.26h4.65a24,24,0,0,1,5.91.52,7.94,7.94,0,0,1,4.22,2.61,6.84,6.84,0,0,1,1.57,4.5,6.63,6.63,0,0,1-.71,3.06,7.73,7.73,0,0,1-2.33,2.58,9.23,9.23,0,0,1,3.94,3.16,8,8,0,0,1,1.25,4.49,8.34,8.34,0,0,1-1.29,4.54,8.21,8.21,0,0,1-3.32,3.07,12.82,12.82,0,0,1-5.61,1Zm5.62-24.18v6.22h1.23a4.56,4.56,0,0,0,3.06-.86,3,3,0,0,0,1-2.35,2.76,2.76,0,0,0-.95-2.2,4.35,4.35,0,0,0-2.89-.81Zm0,11.25v7.57h1.41c2.34,0,3.91-.3,4.73-.89a3,3,0,0,0,1.21-2.57,3.59,3.59,0,0,0-1.43-3c-.95-.74-2.53-1.1-4.75-1.1Z"/><path class="cls-1" d="M207.79,119.26h5.58V148.8h-5.58Z"/><path class="cls-1" d="M256.84,124.08l-4,3.91a11.71,11.71,0,0,0-8.76-4,10,10,0,0,0-7.31,2.89,9.5,9.5,0,0,0-2.95,7,9.72,9.72,0,0,0,3.06,7.25,10.4,10.4,0,0,0,7.54,3,9.35,9.35,0,0,0,4.92-1.22,8.68,8.68,0,0,0,3.22-3.84h-8.55v-5.28h14.86l0,1.24a14.42,14.42,0,0,1-2,7.35,13.94,13.94,0,0,1-5.2,5.3,14.82,14.82,0,0,1-7.49,1.83,16.58,16.58,0,0,1-8.21-2,14.64,14.64,0,0,1-5.7-5.69,15.85,15.85,0,0,1-2.1-8,14.83,14.83,0,0,1,3.88-10.21,15.26,15.26,0,0,1,12-5.16,18.26,18.26,0,0,1,7.21,1.43A16.52,16.52,0,0,1,256.84,124.08Z"/><rect class="cls-2" x="54.52" y="206.25" width="275.44" height="5.43"/><path class="cls-2" d="M330,0V163.28H281.38V97.66H75.63q-5.86,0-13.74-6.35-7.38-6.61-7.37-19.08V0h48.83V63.58h178V0Z"/><path class="cls-1" d="M275.47,255A5.18,5.18,0,0,1,279,250a18.42,18.42,0,0,0-1.94-4.33,5.18,5.18,0,0,1-7.2-6.78,18.79,18.79,0,0,0-4.45-1.69,5.17,5.17,0,0,1-9.88.3,18.72,18.72,0,0,0-4.34,1.94,5.18,5.18,0,0,1-.73,6.1,4.78,4.78,0,0,1-.85.72,5.24,5.24,0,0,1-2.14.39c.12.14.23.29.34.44a.71.71,0,0,1,.1.14c.09.11.17.22.25.34a.71.71,0,0,1,.1.14l.33.49h0c.12.18.24.37.35.56l0,.06c.1.18.21.36.31.55l0,.05c.23.41.45.85.66,1.3v0c.11.22.21.46.31.69a18,18,0,0,1,1.07,3.76l.16.53a9.49,9.49,0,1,1,3,6.68c-.22-.21-.43-.44-.63-.66h0c-2.83-2.17-3.82-6.27-3.82-6.27a18.2,18.2,0,0,0-6.53-10.88l0,0a5.18,5.18,0,0,1-.48-5.34,18.71,18.71,0,0,0-4.44-1.69,5.18,5.18,0,0,1-9.89.3,18.46,18.46,0,0,0-4.33,2,5.17,5.17,0,0,1-6.79,7.19,19.37,19.37,0,0,0-1.68,4.45,5.18,5.18,0,0,1,.3,9.89,18.42,18.42,0,0,0,1.94,4.33,5.18,5.18,0,0,1,7.2,6.78,18.88,18.88,0,0,0,4.44,1.69,5.18,5.18,0,0,1,9.89-.3,18.52,18.52,0,0,0,4.34-1.95,5.1,5.1,0,0,1,1.58-6.81,5.08,5.08,0,0,1,2.07-.39l-.31-.39h0a18.19,18.19,0,0,1-3.56-8,5.67,5.67,0,0,0-.12-.62,9.49,9.49,0,1,1-3.09-6.85h0s3.93,2.81,4.56,7.3a16.13,16.13,0,0,0,5.64,9.68h0c.11.09.22.18.32.28a5.18,5.18,0,0,1,1.1,6,18.71,18.71,0,0,0,4.44,1.69,5.18,5.18,0,0,1,9.89-.3,18.46,18.46,0,0,0,4.33-1.95,5.18,5.18,0,0,1,6.79-7.2,19.12,19.12,0,0,0,1.68-4.44,5.18,5.18,0,0,1-3.79-4.83"/><line class="cls-3" x1="151.18" y1="260.67" x2="151.4" y2="260.7"/><line class="cls-3" x1="151.18" y1="260.67" x2="151.4" y2="260.7"/><path class="cls-4" d="M148.23,250.49l9.61,10.64a21.92,21.92,0,0,1-1,2.12,19.85,19.85,0,0,1-28.47,6.64l-6.92.08A24.49,24.49,0,0,0,160,266.84c.42-.64.81-1.31,1.17-2l2.2,2.44,5.19-.06-5.73-6.36-3.76-4.15-8.31-9.21Z"/><rect class="cls-3" x="143.36" y="256.42" width="2.81" height="2.8" transform="matrix(1, -0.01, 0.01, 1, -2.96, 1.69)"/><rect class="cls-3" x="143.4" y="260.02" width="2.81" height="2.81" transform="translate(-3 1.69) rotate(-0.66)"/><rect class="cls-3" x="147.01" y="259.98" width="2.81" height="2.81" transform="translate(-3 1.73) rotate(-0.66)"/><rect class="cls-3" x="146.97" y="256.38" width="2.81" height="2.81" transform="translate(-2.96 1.73) rotate(-0.66)"/><path class="cls-4" d="M139.28,233.63a19.85,19.85,0,0,1,20,18.6l4.41,4.88a24.09,24.09,0,0,0,.26-3.91,24.48,24.48,0,1,0-48.37,5.68,26.26,26.26,0,0,0,.72,2.53l-2.94,3.41-2.65,3.08,8.89-.11,6-.07,1.94,0,2.65-3.07,15.6-18.1,2.56-3,1.5-1.73-2.32.82-4,1.41-17.72,6.25L120,257.17a19.55,19.55,0,0,1-.33-3c0-.16,0-.32,0-.48a19.85,19.85,0,0,1,19.62-20.08"/><path class="cls-5" d="M365.76,264.47l.13,11a7.32,7.32,0,0,1-7.22,7.39l-5.76.07a7.33,7.33,0,0,1-7.39-7.23l-.13-11-11,.13a7.33,7.33,0,0,1-7.4-7.22l-.15-13.07,17.65-.2a9.75,9.75,0,0,0,.59.84,12.25,12.25,0,0,0,3.36,3c-.33.87-.31,1.63.1,1.88s1.55-.37,2.26-1.54.83-2.38.29-2.71-1.19.14-1.83.93a11.19,11.19,0,0,1-2.7-2.48h0a10.79,10.79,0,0,1-.82-1.18h0l0-.07a13.71,13.71,0,0,1-.64-1.27h0l0-.05a10.86,10.86,0,0,1-.84-4.12,11.07,11.07,0,1,1,19.95,6.47,15.64,15.64,0,0,1-2,2.09l-.06,0c-.56.44-1.13.8-1.62,1.17-4,3-5.75,4.2-5.82,13a4.47,4.47,0,0,0-2.17,7.57,4.48,4.48,0,0,0,6.26-6.4,4.56,4.56,0,0,0-2.24-1.19c.08-7.84,1.52-8.93,5-11.54.51-.38,1.06-.79,1.66-1.26l.06,0,.07-.07a16.54,16.54,0,0,0,2.92-3.33l17.66-.21L384,257a7.32,7.32,0,0,1-7.22,7.39Zm-8.38-1.58a2.56,2.56,0,0,0-1.83-.73,2.53,2.53,0,0,0-1.81.77,2.57,2.57,0,1,0,3.64,0"/><path class="cls-6" d="M25.25,237.18A2.73,2.73,0,1,0,28,239.91a2.73,2.73,0,0,0-2.73-2.73Z"/><path class="cls-6" d="M31.58,237.18a2.73,2.73,0,1,0,2.73,2.73,2.73,2.73,0,0,0-2.73-2.73Z"/><path class="cls-6" d="M37.91,237.18a2.73,2.73,0,1,0,2.73,2.73,2.73,2.73,0,0,0-2.73-2.73Z"/><path class="cls-6" d="M31.14,234a2.73,2.73,0,1,0-2.73,2.73A2.73,2.73,0,0,0,31.14,234Z"/><path class="cls-6" d="M37.47,234a2.73,2.73,0,1,0-2.73,2.73A2.73,2.73,0,0,0,37.47,234Z"/><path class="cls-6" d="M25.25,243.62A2.73,2.73,0,1,0,28,246.35a2.73,2.73,0,0,0-2.73-2.73Z"/><path class="cls-6" d="M31.58,243.62a2.73,2.73,0,1,0,2.73,2.73,2.73,2.73,0,0,0-2.73-2.73Z"/><path class="cls-6" d="M37.91,243.62a2.73,2.73,0,1,0,2.73,2.73,2.73,2.73,0,0,0-2.73-2.73Z"/><path class="cls-6" d="M25.25,250.05A2.73,2.73,0,1,0,28,252.78a2.73,2.73,0,0,0-2.73-2.73Z"/><path class="cls-6" d="M31.58,250.05a2.73,2.73,0,1,0,2.73,2.73,2.73,2.73,0,0,0-2.73-2.73Z"/><path class="cls-6" d="M37.91,250.05a2.73,2.73,0,1,0,2.73,2.73,2.73,2.73,0,0,0-2.73-2.73Z"/><path class="cls-6" d="M25.25,256.48A2.73,2.73,0,1,0,28,259.21a2.73,2.73,0,0,0-2.73-2.73Z"/><path class="cls-6" d="M31.58,256.48a2.73,2.73,0,1,0,2.73,2.73,2.73,2.73,0,0,0-2.73-2.73Z"/><path class="cls-6" d="M31.58,262.91a2.74,2.74,0,1,0,2.73,2.74,2.74,2.74,0,0,0-2.73-2.74Z"/><path class="cls-6" d="M37.91,256.48a2.73,2.73,0,1,0,2.73,2.73,2.73,2.73,0,0,0-2.73-2.73Z"/><path class="cls-6" d="M31.88,277.63c-2.33-4-17.36-27.58-17.36-27.58s-3.76,10.83,0,20.07c3.42,8.44,15.31,8.19,17.36,8.08,2,.11,13.94.36,17.36-8.08,3.76-9.24,0-20.07,0-20.07s-15,23.62-17.36,27.58Z"/><path class="cls-6" d="M8.2,246.83a4.68,4.68,0,0,1-4.88-4.43c0-4.58,2-9.67,4.88-9.67s4.88,5.09,4.88,9.67a4.68,4.68,0,0,1-4.88,4.43Zm8.2-4.43c0-5.4-2.54-13-8.2-13S0,237,0,242.4a7.79,7.79,0,0,0,5.29,7.24,2.84,2.84,0,0,0-.13.88,3,3,0,0,0,1.15,2.37A148.87,148.87,0,0,0,4,272.08a4.24,4.24,0,0,0,8.48,0,148.39,148.39,0,0,0-2.34-19.19,3,3,0,0,0,1.14-2.37,2.84,2.84,0,0,0-.13-.88,7.79,7.79,0,0,0,5.29-7.24Z"/><path class="cls-6" d="M61.92,248.87a7.12,7.12,0,0,0,1.54-3.17,8.89,8.89,0,0,0,.13-.88c0-.15,0-.29,0-.44s0-.3,0-.44c0-.5-.07-1-.13-1.48a54.51,54.51,0,0,0-1-5.69c-.11-.47-.22-.94-.34-1.4l-.18-.7-.2-.69c-.28-.92-.58-1.84-1-2.73l.07,2.87c0,.94,0,1.89,0,2.83,0,1.71,0,3.41,0,5.09H58.68l-1-11.16-1,11.16H54.71l-1-11.16-1,11.16H50.45c0-1.68,0-3.38,0-5.09,0-.94,0-1.89,0-2.83l.08-2.87a26.72,26.72,0,0,0-.95,2.73l-.2.69-.18.7c-.13.47-.23.93-.34,1.4s-.21.94-.3,1.41-.18.94-.26,1.42c-.17,1-.3,1.9-.42,2.86,0,.49-.09,1-.12,1.48a6.54,6.54,0,0,0,.13,1.76,7.18,7.18,0,0,0,1.54,3.17,7.83,7.83,0,0,0,2.8,2.11,5.49,5.49,0,0,0,.51.21,2.9,2.9,0,0,0-.13.89,3,3,0,0,0,1.14,2.38,148.39,148.39,0,0,0-2.34,19.19,4.24,4.24,0,1,0,8.48,0,148.87,148.87,0,0,0-2.35-19.19,3,3,0,0,0,1.15-2.38,3.24,3.24,0,0,0-.13-.89,4.4,4.4,0,0,0,.5-.21,7.87,7.87,0,0,0,2.81-2.11Z"/></g></g></svg>