<svg xmlns="http://www.w3.org/2000/svg" viewBox="0 0 68.77 68"><path d="M46.83 45.78L47 59a8.82 8.82 0 0 1-8.7 8.89l-6.93.1a8.82 8.82 0 0 1-8.9-8.69l-.15-13.25-13.25.16a8.83 8.83 0 0 1-8.89-8.69L0 21.8l21.23-.25c.22.35.46.7.7 1a14.88 14.88 0 0 0 4 3.67c-.4 1-.36 2 .14 2.26.65.4 1.86-.44 2.7-1.85s1-2.87.36-3.26-1.43.17-2.2 1.1a13 13 0 0 1-3.25-3 12.69 12.69 0 0 1-1-1.42l.01-.07a12.16 12.16 0 0 1-.77-1.53v-.06a13.14 13.14 0 0 1-1-5 13.31 13.31 0 1 1 24 7.78 17.8 17.8 0 0 1-2.45 2.51l-.06.06-2 1.4c-4.85 3.63-6.9 5.05-7 15.6a5.39 5.39 0 1 0 2.23 0c.1-9.44 1.83-10.74 6-13.9l2-1.5.07-.06.1-.1a19.68 19.68 0 0 0 3.5-4L68.6 21l.18 15.7a8.83 8.83 0 0 1-8.69 8.9zm-10.1-1.9a3.1 3.1 0 1 0 0 4.38 3.12 3.12 0 0 0 .88-2.2 3.06 3.06 0 0 0-.93-2.18" fill="#fff" fill-rule="evenodd"/></svg>