<svg xmlns="http://www.w3.org/2000/svg" viewBox="0 0 76.3 44.37"><path d="M71.74 21.48A6.23 6.23 0 0 1 76 15.4a22.5 22.5 0 0 0-2.34-5.21A6.23 6.23 0 0 1 64.94 2a22.33 22.33 0 0 0-5.34-2 6.23 6.23 0 0 1-11.89.36 22.57 22.57 0 0 0-5.22 2.34 6.25 6.25 0 0 1-.88 7.3 6.84 6.84 0 0 1-1 .86 6.16 6.16 0 0 1-2.57.46l.4.53.12.17.3.4a1.63 1.63 0 0 1 .11.17l.4.6.43.67v.08l.38.65v.06l.8 1.57q.18.4.36.84a22 22 0 0 1 1.3 4.51c0 .1.1.32.2.64a11.42 11.42 0 1 1 3.59 8 9.63 9.63 0 0 1-.77-.8C42.3 26.9 41.1 22 41.1 22a21.85 21.85 0 0 0-7.85-13.1v-.05a6.22 6.22 0 0 1-.58-6.43 22.57 22.57 0 0 0-5.35-2 6.23 6.23 0 0 1-5.81 4.56A6.22 6.22 0 0 1 15.4.73a22.5 22.5 0 0 0-5.21 2.34A6.23 6.23 0 0 1 2 11.73a22.57 22.57 0 0 0-2 5.35 6.23 6.23 0 0 1 4.56 5.81A6.23 6.23 0 0 1 .36 29a22.5 22.5 0 0 0 2.34 5.18 6.23 6.23 0 0 1 8.66 8.16 22.5 22.5 0 0 0 5.34 2A6.23 6.23 0 0 1 28.6 44a22.09 22.09 0 0 0 5.21-2.34 6.23 6.23 0 0 1 .89-7.34 6.3 6.3 0 0 1 1-.86 6.16 6.16 0 0 1 2.5-.46l-.38-.47a21.94 21.94 0 0 1-4.28-9.62 6 6 0 0 0-.14-.74 11.42 11.42 0 1 1-3.72-8.24s4.72 3.38 5.48 8.78c.1 1 1.5 7.62 6.78 11.64a3.9 3.9 0 0 1 .38.33A6.22 6.22 0 0 1 43.67 42 22.33 22.33 0 0 0 49 44a6.23 6.23 0 0 1 11.89-.36 22.38 22.38 0 0 0 5.22-2.34 6.23 6.23 0 0 1 8.16-8.66 22.54 22.54 0 0 0 2-5.35 6.24 6.24 0 0 1-4.56-5.81" fill="#fff"/></svg>