<svg xmlns="http://www.w3.org/2000/svg" viewBox="0 0 1366 123.79"><defs><style>.cls-1{fill:#42210b;}</style></defs><title>skyline_1</title><g id="Layer_2" data-name="Layer 2"><g id="Layer_1-2" data-name="Layer 1"><path class="cls-1" d="M1360.9,96.91V101h-6.13V94h-2.71V82l-32.16,3.48V97h-6.83V79h-15.8l-4.54-8-4.33,8h-16.31v6.47h-6.83V62.89h-28.65v2h-2.21a.35.35,0,0,0,0,.69h2.21v2.79h-2.38a.34.34,0,1,0,0,.68h2.38v2.79h-2.38a.34.34,0,0,0-.34.35.34.34,0,0,0,.34.34h2.38v2.78h-2.38a.34.34,0,0,0-.34.34.34.34,0,0,0,.34.35h2.38v2.79h-2.38a.34.34,0,1,0,0,.68h2.38v2.79h-2.38a.34.34,0,0,0-.34.34.34.34,0,0,0,.34.34h2.38V85.7h-2.21a.34.34,0,0,0-.34.35.33.33,0,0,0,.34.34h2.21V88.9h-9l-9.27-5.67-8.31,4.7-4.21-7.39h-5v-49h-3.89V28.06H1177v3.45h-6.9V75.46h-12.95v2.66h-15.68V90.55h-4.88V14.76h-9.69V12.43l15.41-8.22h-9.13V0H1107V4.21h-9.13l15.41,8.22v2.33h-9.69v83h-6.82v6h-8.62v6.83h-2.84c-.2-3.59-.44-7-.7-9.92a8.94,8.94,0,0,0,.29-1.64,5,5,0,0,0,0-1.55,4.41,4.41,0,0,1,.8-.35,2.61,2.61,0,0,0,.14.65c.18-.48.59-.34.56.15a1.33,1.33,0,0,1,.26-.35.87.87,0,0,1,.32.68c.33-.11.32-.54.51-.78a2.09,2.09,0,0,1,.78.62,2.37,2.37,0,0,0,.07-.76c.36.15.63.59.92.87a6.27,6.27,0,0,0,0-.87,5.31,5.31,0,0,1,1.24.92,5.85,5.85,0,0,1-.09-.92,5.82,5.82,0,0,1,1,.86,9.71,9.71,0,0,0-.26-1,2.33,2.33,0,0,0,1.24.67c-.1-.32-.36-.55-.46-.88a5.05,5.05,0,0,0,1.34.2c-.2-.32-.64-.44-.92-.61a4.54,4.54,0,0,0,1.1-.27v0c-.48-.19-1.06-.19-1.36-.7a1.62,1.62,0,0,1,0,.3c-.36-.06-.64-.3-1-.25,0,.58-.78.11-1.1,0,0,.1-.06.15,0,.3a1.92,1.92,0,0,1-1.09-.26c.18.94-.34.51-.88.22.56.64-.69.54-1,.14-.22.24.06.47.27.64h-.25a4.19,4.19,0,0,0-1.1-.21,1.38,1.38,0,0,0,.64.23l-.46.07a8.32,8.32,0,0,0-1.18.26l-.12,0a.58.58,0,0,0-.11-.15,3.51,3.51,0,0,1,.43-.54,6.69,6.69,0,0,1,.88-.8,8.17,8.17,0,0,1,1.38-.86l0,.74a2.26,2.26,0,0,1,.25-.73.61.61,0,0,0,.22.56c0-.17.17-.34.22-.51l.24.53a3.77,3.77,0,0,1,.47-.64.82.82,0,0,0,.43.68,2.4,2.4,0,0,1,.25-.45c0,.54.32.74.64.28a1.55,1.55,0,0,0,.88.32,1.72,1.72,0,0,0-.09-.19,8.1,8.1,0,0,0,1.49.19,2.5,2.5,0,0,0-.8-.62c.2,0,1.08-.06,1.08-.36s-.82-.24-1-.37c.22-.17.68-.17.73-.46a2,2,0,0,0-1.12,0c.2-.33.07-.6-.29-.59s-.62.51-.88.63a5.36,5.36,0,0,0,.36-1c-.52.18-.87.82-1.39,1,.21-1-.54,0-.74,0a1.68,1.68,0,0,0,0-.67c-.21.25-.28.6-.47.86a.65.65,0,0,1,0-.18.73.73,0,0,0-.47.76,11.5,11.5,0,0,0-1.56.71,9,9,0,0,0-1,.73l-.08.07,1.1-2.35a1,1,0,0,0,.08-.25h.17a1.83,1.83,0,0,0-.13-.16c0-.08,0-.15,0-.23.41,0,2.11-.65,2-1a.56.56,0,0,1-.6,0,6.55,6.55,0,0,1,1-.84,2.44,2.44,0,0,0-1.14,0,1.85,1.85,0,0,1,1-.68c-.32-.43-.94-.08-1.34.07.13-.32.41-.67.3-1-.54.14-.86.73-1.15,1.17a6.8,6.8,0,0,1-.09-1c0,.36,0,1.42-.36,1.73a3.63,3.63,0,0,1-.23-.75c-.12.26-.26.59-.51.7,0-.21,0-.4,0-.62a1.67,1.67,0,0,0-.25.28,2.9,2.9,0,0,0-.36-.34c0-.14.07-.29.09-.42.37-.07.75-.2.75-.43s-.51-.3-.9-.37v-.28c.26-.09.5-.18.55-.44a2.27,2.27,0,0,0-.54-.08c0-2.56.06-5,.12-7.3.2-.85.26-1.71.44-2.63.2-1.16,1-2.43.86-3.65h.37c.81,0,1.63,0,2.43,0s1.64.1,2.45.21a.79.79,0,0,0,.33,0l-.09.12c.37.7.3,2.56.43,3.57a5.66,5.66,0,0,1,1-1.83c.17.28.49.4.71.61,1.24-.31,2.6.11,3.87-.11a4.09,4.09,0,0,1-1.79-1.13,3.51,3.51,0,0,0,1.41-1.83,13,13,0,0,1-2.37.24,3.08,3.08,0,0,0,.55-1.21,1.77,1.77,0,0,1-1,.81,12.2,12.2,0,0,1,.12-1.9c-.31.58-1.1.92-1.62,1.34,0-.2-.13-.49-.12-.64a5,5,0,0,1-.72,1.46l-.26.31c-.16,0-.31-.09-.46-.13a18.19,18.19,0,0,0-2.44-.5c-.82-.12-1.65-.23-2.46-.31l-.7,0a2.22,2.22,0,0,0-.25-.35,2.26,2.26,0,0,0,.2-.13c.68-.49,1.36-1,2.06-1.44.4-.25.78-.5,1.18-.72.24.25.48.62.7.88a1.83,1.83,0,0,1,.09-1.18c.52-.67.27,0,.75,0,.88.17.27.8,1-.09.44-.5.41-1.08,1-1.46.42.49.75,1.15,1.44,1.26-.06-.13-.15-.3-.21-.44,1.14,0,2.31.52,3.5.35a1.53,1.53,0,0,0-.8-.6c.62-.26,1.73,0,1.89-.71-.46.1-1.55.06-1.61-.55,0-.31.87-.87,1-1.26-.51.15-1,.55-1.51.39a12.89,12.89,0,0,1,.53-1.59c-.25.23-1.12,1.56-1.7,1.23s-.09-1.93-.57-2.47c0,.75-.35,2-1,2.3a3,3,0,0,0-1.26-1.65c0,.82-.68,3.18-1.78,2,0,1-.67,2.1-1.57,1a1.35,1.35,0,0,1-.2,1.34v0c-.64.47-1.29,1-2,1.39s-1.21.8-1.81,1.27a5,5,0,0,1,.88-2.93,2.57,2.57,0,0,0,.64-1.41,1,1,0,0,1-.32.2,5.47,5.47,0,0,1,.65-1.53c.47-.58,4-3.31,4.25-3.82-.19.1-.51.17-.69.27a9.16,9.16,0,0,0,.78-1.81c-.4.26-.7.66-1.2.73a5,5,0,0,0-.32-2,14.22,14.22,0,0,1-.37,2.17c-1.21-1.89-.88,0-1.3,1.19-.21-.26-.57-.44-.8-.7-.36.52-.14,1.87.07,2.78-.23.35-.45.71-.67,1.06a17.14,17.14,0,0,0-.93,1.75c-.19-.62.24-1.28.09-1.94-.11.16-.31.33-.42.46a7.47,7.47,0,0,0,.07-1.42c-.09.18-.24.33-.32.47a6.18,6.18,0,0,1,.11-2.7,1.75,1.75,0,0,1-.45.6,18.77,18.77,0,0,0,.09-3.1,5.39,5.39,0,0,1-.31,1.42c-.05-1.12-.58-2.15-.58-3.2a8.23,8.23,0,0,0-.28,3.26c-.26-.42-.55-.83-1-.87a10.22,10.22,0,0,1,.53,2.57c-.48-.44-.9-1.14-1.42-1.56a8.45,8.45,0,0,0,.14,1.14c-.49-.18-.79-.76-1-1.24a6.84,6.84,0,0,1-.32,1.44c-.64-.54-.79-2.52-.86-3.17,0,.65,0,1.31-.07,2-.59-.82-1.25-1.87-2.27-2.06-.16.61.41,1.22.66,1.77-.74-.2-1.94-.78-2.48.07a3.5,3.5,0,0,1,1.9,1.12,4.72,4.72,0,0,0-2.11.18,12.08,12.08,0,0,1,1.93,1.41.9.9,0,0,1-1.08.09c-.11.67,3.12,1.73,3.9,1.61a3.78,3.78,0,0,0,.37,1.12l2.32,4.26-.16-.12a12.76,12.76,0,0,0-2-1.21,16.31,16.31,0,0,0-3-1.14,1.34,1.34,0,0,0-1-1.37,1.69,1.69,0,0,1,.09.34,12.6,12.6,0,0,0-.94-1.52,2.51,2.51,0,0,0,.06,1.21c-.39-.15-1.89-1.81-1.38,0-1-.34-1.71-1.46-2.7-1.74a11.39,11.39,0,0,0,.78,1.76c-.48-.2-1.19-1.06-1.68-1-.68,0-.88.53-.48,1.11a4,4,0,0,0-2.07.16c.11.55,1,.5,1.4.76-.33.25-1.86.32-1.82.8s1.68.62,2,.54a4.53,4.53,0,0,0-1.4,1.29,18.07,18.07,0,0,0,2.73-.55c-.05.09-.09.25-.13.34a2.62,2.62,0,0,0,1.59-.7c.64.83,1.24.43,1.15-.58.11.22.41.53.51.78a1.44,1.44,0,0,0,.72-1.26,6.05,6.05,0,0,1,.94,1.11c.12-.29.31-.76.4-1,.12.32.37.63.45.92a1,1,0,0,0,.34-1.06,4,4,0,0,1,.56,1.32l-.18-1.33v0a15.2,15.2,0,0,1,2.66,1.44,9.83,9.83,0,0,1,1.73,1.4,7.13,7.13,0,0,1,.85.91,2.27,2.27,0,0,0-.17.31l-.25-.08a12.73,12.73,0,0,0-2.21-.36c-.29,0-.57,0-.87,0a2.92,2.92,0,0,0,1.18-.56,6.82,6.82,0,0,0-2,.56,2.61,2.61,0,0,0-.48,0c.37-.34.85-.8.42-1.2-.52.78-2.84,1.11-1.87-.15-1,.58-1.87,1.45-1.67-.27a3.65,3.65,0,0,1-2,.57c.05-.27-.07-.38-.07-.54-.55.33-1.88,1.27-2,.22-.72-.07-1.24.41-1.91.57,0-.18-.06-.4,0-.56-.51,1-1.65,1-2.5,1.48a7.79,7.79,0,0,0,2.15.4c-.51.36-1.31.59-1.64,1.22a8.68,8.68,0,0,0,2.46-.5c-.16.61-.61,1.06-.75,1.68a4.67,4.67,0,0,0,2.23-1.38,12.92,12.92,0,0,0-.35,1.92,9.49,9.49,0,0,1,1.72-1.69,16.19,16.19,0,0,1-.06,1.7,10.07,10.07,0,0,1,2.19-1.86,14.85,14.85,0,0,0,0,1.63c.51-.56,1-1.4,1.6-1.73a4.47,4.47,0,0,0,.22,1.41,4.06,4.06,0,0,1,1.38-1.24c.38.45.41,1.22,1,1.38a1.76,1.76,0,0,1,.51-1.3c.16.19.44.36.54.64-.12-.91.6-1.23,1-.35a9,9,0,0,0,.2-1.23,12.08,12.08,0,0,1,1.5.53,8.86,8.86,0,0,0,.21,2.88,17.25,17.25,0,0,0,.72,3c-.06,2.18-.1,4.53-.13,7-.31.18-.66.57-.92.69a7.7,7.7,0,0,0,.47-1.27c-.69.24-1.15,1.08-1.84,1.37.28-1.31-.7-.07-1,.06a2,2,0,0,0,0-.87c-.28.32-.37.78-.62,1.13a.94.94,0,0,1,.06-.24.94.94,0,0,0-.62,1,13.54,13.54,0,0,0-2.05.93,10.75,10.75,0,0,0-1.36,1s-.07.08-.1.1l1.46-3.1a3.84,3.84,0,0,0,.19-.76c0,.14,0,.28.08.42s.06.4.1.59a11.86,11.86,0,0,1,.3-1.15c.85-.21,2.29-.87,2.21-1.24a.71.71,0,0,1-.77,0,7.44,7.44,0,0,1,1.3-1.1,3,3,0,0,0-1.5,0,2.38,2.38,0,0,1,1.3-.89c-.42-.58-1.24-.12-1.77.07.17-.41.54-.87.4-1.31-.71.2-1.13,1-1.51,1.55a11.87,11.87,0,0,1-.13-1.35c0,.46,0,1.86-.47,2.27a4.06,4.06,0,0,1-.3-1c-.16.34-.34.78-.67.92,0-.27,0-.53,0-.82-.36.33-.6.84-.94,1.17a7,7,0,0,1,.26-1.83c-.33,0-.52.34-.68.63a5.86,5.86,0,0,0-.35-2.28c0,.75-.27,1.51-.26,2.3a3.4,3.4,0,0,1-.28-1,12.3,12.3,0,0,0,.2,2.19,1.17,1.17,0,0,1-.34-.4,4.57,4.57,0,0,1,.19,1.9,1.91,1.91,0,0,1-.24-.32.53.53,0,0,0,0,.25l-.1,0,.1.06c0,.26.08.51.1.74-.07-.09-.22-.2-.32-.32-.06.48.26.93.16,1.38-.23-.42-.48-.81-.74-1.2s-.35-.48-.52-.72c.1-.65.2-1.61-.08-2a5.53,5.53,0,0,0-.53.55c-.35-.81-.2-2.2-1-.81a15.25,15.25,0,0,1-.35-1.51,3.85,3.85,0,0,0-.13,1.42c-.35,0-.58-.3-.88-.47a7,7,0,0,0,.62,1.26c-.12-.06-.36-.09-.48-.15.16.35,2.82,2.12,3.16,2.51a4,4,0,0,1,.55,1,.49.49,0,0,1-.25-.12,1.78,1.78,0,0,0,.52,1,3.32,3.32,0,0,1,.74,2c-.44-.28-.88-.55-1.32-.79s-1-.6-1.45-.91a1,1,0,0,1-.2-.94c-.58.85-1.12.06-1.15-.63-.73.9-1.34-.72-1.34-1.32a2.23,2.23,0,0,0-.83,1.23,2,2,0,0,1-.82-1.58c-.32.39,0,1.58-.3,1.78s-1.07-.64-1.24-.81c.12.37.35.72.44,1.09-.38.16-.72-.11-1.08-.19.1.25.76.61.76.83,0,.45-.78.51-1.11.47.14.56.92.26,1.36.42a1.22,1.22,0,0,0-.53.45,18.9,18.9,0,0,0,2.47-.38,1.41,1.41,0,0,0-.14.31c.49-.11.69-.58,1-1,.43.24.44.65.76,1,.58.59.12.18.73,0,.33-.08.14-.52.54-.06a1.28,1.28,0,0,1,.11.82,7,7,0,0,1,.45-.66c.3.15.58.3.87.47.52.29,1,.61,1.52.92a1.1,1.1,0,0,1,.14.09,2.22,2.22,0,0,0-.16.25l-.47.07c-.58.11-1.17.21-1.74.33a14.37,14.37,0,0,0-1.71.46c-.11,0-.2.09-.31.12L1068,94a3.07,3.07,0,0,1-.56-1c0,.12-.06.32-.06.47a3.74,3.74,0,0,1-1.21-.88,10.49,10.49,0,0,1,.18,1.34,1.23,1.23,0,0,1-.73-.53,2.23,2.23,0,0,0,.44.83,10.3,10.3,0,0,1-1.68-.07,2.49,2.49,0,0,0,1.08,1.24,2.73,2.73,0,0,1-1.22.86c.9.11,1.85-.24,2.74-.08.16-.16.37-.26.46-.46a3.61,3.61,0,0,1,.83,1.24,10.72,10.72,0,0,1,.15-2.54l-.07-.06a.6.6,0,0,1,.23-.06,16.41,16.41,0,0,1,1.71-.26c.58,0,1.15-.1,1.73-.11l.27,0a10.24,10.24,0,0,0,.77,2.56c.16.63.24,1.24.43,1.83.32,3.61.61,7.83.87,12.25H1074v3.38c-3.48-.13-7.88-.16-12.66-.14.26-2.13.52-4.18.79-6,.17-.44.26-.9.4-1.37a8,8,0,0,0,.7-1.91l.2,0c.44,0,.87.1,1.3.16a11.33,11.33,0,0,1,1.29.26l.17.06,0,0a7.84,7.84,0,0,1,0,1.94c.19-.28.35-.71.68-.91.06.16.23.24.33.38.69-.09,1.39.22,2.08.17a2.13,2.13,0,0,1-.89-.71,2,2,0,0,0,.88-.9,7.82,7.82,0,0,1-1.28,0,2,2,0,0,0,.37-.61,1,1,0,0,1-.58.37,6,6,0,0,1,.19-1,2.87,2.87,0,0,1-1,.61c0-.1,0-.26,0-.35a3,3,0,0,1-.47.75l-.17.14-.23-.1a9.49,9.49,0,0,0-1.27-.43l-1.3-.32-.37-.07a.75.75,0,0,0-.1-.2l.11-.07c.39-.21.78-.43,1.19-.63l.68-.31c.11.14.22.37.32.52,0-.17,0-.49.12-.61.31-.34.16,0,.4.06.45.14.08.44.54,0,.27-.24.3-.55.62-.71.2.29.33.66.69.76l-.09-.25a11.59,11.59,0,0,0,1.86.39,1,1,0,0,0-.39-.36c.34-.1.92.16,1.06-.25-.26,0-.84-.07-.83-.41,0-.17.52-.41.61-.6-.27,0-.55.24-.83.1.08-.28.28-.53.39-.81-.15.12-.69.78-1,.56s.08-1-.14-1.35a1.58,1.58,0,0,1-.69,1.16,1.66,1.66,0,0,0-.58-1c0,.45-.56,1.66-1.07,1-.06.52-.5,1.09-.9.42a.72.72,0,0,1-.19.7c-.37.22-.75.44-1.14.64s-.69.35-1,.53a2.53,2.53,0,0,1,.65-1.5,1.34,1.34,0,0,0,.44-.7.7.7,0,0,1-.2.08,3.21,3.21,0,0,1,.46-.78c.28-.27,2.38-1.51,2.5-1.77-.09,0-.27.06-.37.1a6.05,6.05,0,0,0,.53-.93c-.23.11-.43.32-.69.32a2.76,2.76,0,0,0,0-1.08,10.79,10.79,0,0,1-.33,1.13c-.54-1.09-.48,0-.78.56a5.3,5.3,0,0,0-.38-.43,2.43,2.43,0,0,0-.14,1.49c-.14.17-.29.34-.42.52a10.72,10.72,0,0,0-.62.88c0-.34.21-.67.18-1a3.08,3.08,0,0,0-.26.24,4.83,4.83,0,0,0,.13-.76c-.07.09-.15.16-.21.23a3.78,3.78,0,0,1,.23-1.44.8.8,0,0,1-.27.28,8.76,8.76,0,0,0,.24-1.64,2.71,2.71,0,0,1-.26.74c0-.6-.16-1.19-.1-1.76a4.56,4.56,0,0,0-.35,1.72c-.11-.22-.25-.46-.49-.51a5.93,5.93,0,0,1,.11,1.4c-.24-.27-.4-.67-.66-.92,0,.21,0,.41,0,.61-.25-.12-.36-.45-.47-.72a3.92,3.92,0,0,1-.26.73c-.3-.31-.26-1.38-.26-1.74,0,.35-.09.69-.16,1-.26-.46-.55-1.06-1.08-1.24-.12.32.13.69.26,1-.4-.17-1-.55-1.35-.14a1.94,1.94,0,0,1,1,.74,2.33,2.33,0,0,0-1.14,0,7.06,7.06,0,0,1,.94.88.51.51,0,0,1-.59,0c-.09.34,1.57,1.12,2,1.1a4,4,0,0,0,.13.64l1,2.41s0,0-.07-.08a8.28,8.28,0,0,0-1-.78,9.38,9.38,0,0,0-1.51-.78.73.73,0,0,0-.43-.8,1.62,1.62,0,0,1,0,.19c-.18-.28-.23-.63-.43-.89a1.46,1.46,0,0,0,0,.66c-.2-.1-.9-1.09-.74-.08-.51-.25-.82-.9-1.33-1.12a6.66,6.66,0,0,0,.3,1c-.24-.14-.57-.64-.84-.68s-.5.24-.32.58a2,2,0,0,0-1.12,0c0,.3.5.33.7.5-.19.12-1,0-1,.3s.86.44,1.06.43a2.57,2.57,0,0,0-.83.59,9.2,9.2,0,0,0,1.5-.12.77.77,0,0,0-.1.18,1.5,1.5,0,0,0,.89-.26c.29.48.65.3.66-.25a2.8,2.8,0,0,1,.22.46.8.8,0,0,0,.47-.65,4.52,4.52,0,0,1,.43.67l.28-.53c0,.18.15.35.19.53a.59.59,0,0,0,.24-.55,2.33,2.33,0,0,1,.21.74v-.74a8.86,8.86,0,0,1,1.33.94,6.58,6.58,0,0,1,.83.84,3.09,3.09,0,0,1,.4.56.78.78,0,0,0-.1.15.73.73,0,0,1-.12,0,10.31,10.31,0,0,0-1.17-.34c-.16,0-.31,0-.46-.08a1.27,1.27,0,0,0,.65-.2,3.41,3.41,0,0,0-1.1.16l-.25,0c.22-.16.51-.38.29-.62-.32.37-1.58.41-1-.2-.56.26-1.1.65-.87-.27a1.86,1.86,0,0,1-1.1.2c0-.15,0-.21,0-.3-.33.14-1.09.56-1.1,0-.38-.07-.68.16-1,.19a1.6,1.6,0,0,1,0-.31c-.34.52-1,.46-1.43.64a4.18,4.18,0,0,0,1.12.35c-.29.14-.75.24-.95.55a5.53,5.53,0,0,0,1.34-.12c-.12.32-.39.53-.51.84a2.26,2.26,0,0,0,1.28-.59,7.79,7.79,0,0,0-.31,1,4.63,4.63,0,0,1,1-.79,6,6,0,0,1-.14.9,5.33,5.33,0,0,1,1.29-.85,6.11,6.11,0,0,0-.08.87c.31-.26.6-.69,1-.82a2.13,2.13,0,0,0,0,.76,2,2,0,0,1,.81-.58c.18.27.14.68.46.82a.92.92,0,0,1,.36-.67c.07.12.2.22.24.37,0-.48.41-.61.57-.11a3.16,3.16,0,0,0,.18-.65,5.12,5.12,0,0,1,.78.38,4.87,4.87,0,0,0-.09,1.56,9.8,9.8,0,0,0,.2,1.65c-.28,1.88-.54,4-.82,6.24-4.08,0-8.38.09-12.57.16-.17-6.9-.28-13.74-.21-19.23.14-.6.18-1.22.28-1.86a10.34,10.34,0,0,0,.58-2.62h.27c.59,0,1.16,0,1.74,0s1.15.06,1.72.12a1,1,0,0,1,.24,0l-.07.07a10.46,10.46,0,0,1,.34,2.53c.21-.4.33-1,.73-1.31.11.2.34.28.5.43.88-.23,1.85.05,2.73-.14a2.62,2.62,0,0,1-1.27-.77,2.39,2.39,0,0,0,1-1.32,10.76,10.76,0,0,1-1.65.22,2.6,2.6,0,0,0,.36-.87,1.26,1.26,0,0,1-.68.58,8.79,8.79,0,0,1,.07-1.35c-.21.42-.76.68-1.13,1,0-.14-.09-.34-.1-.45a3.47,3.47,0,0,1-.49,1.05l-.19.22-.32-.09a12.57,12.57,0,0,0-1.73-.33c-.58-.09-1.17-.14-1.76-.2l-.48,0a1.66,1.66,0,0,0-.18-.24l.14-.11c.47-.34,1-.7,1.45-1,.26-.18.54-.36.82-.53a7.17,7.17,0,0,1,.51.61,1.19,1.19,0,0,1,.05-.81c.36-.49.2-.05.53,0,.62.11.19.56.73-.08.3-.36.27-.77.68-1,.3.34.53.8,1,.88A1.82,1.82,0,0,0,1054,87a17.21,17.21,0,0,0,2.5.2,1.23,1.23,0,0,0-.57-.41c.43-.19,1.22,0,1.32-.52-.32.06-1.1.06-1.13-.39,0-.22.61-.62.69-.88-.36.1-.68.4-1.07.27.07-.37.27-.75.36-1.12-.16.17-.76,1.13-1.18.89s-.08-1.38-.43-1.74a2,2,0,0,1-.7,1.64c-.2-.44-.48-1-.92-1.16.05.58-.44,2.25-1.23,1.41,0,.7-.46,1.52-1.1.72a1,1,0,0,1-.13,1c-.45.33-.91.69-1.38,1s-.84.58-1.26.88a3.36,3.36,0,0,1,.59-2.08,1.66,1.66,0,0,0,.44-1,.49.49,0,0,1-.23.14,3.77,3.77,0,0,1,.46-1.09c.32-.41,2.83-2.38,3-2.74-.11.07-.35.12-.47.19a7.71,7.71,0,0,0,.53-1.3c-.29.18-.5.49-.84.53a3.49,3.49,0,0,0-.24-1.4,11.67,11.67,0,0,1-.24,1.53c-.88-1.32-.63,0-.91.87a6.69,6.69,0,0,0-.58-.5,3.18,3.18,0,0,0,.08,2c-.16.26-.32.49-.48.76s-.45.83-.64,1.25c-.13-.44.15-.91,0-1.38-.08.12-.23.24-.3.34a6.67,6.67,0,0,0,0-1,3.35,3.35,0,0,1-.22.34,4.36,4.36,0,0,1,0-1.9,1.17,1.17,0,0,1-.3.41,11.43,11.43,0,0,0,0-2.19,3.07,3.07,0,0,1-.2,1c0-.79-.42-1.51-.44-2.26a5.86,5.86,0,0,0-.16,2.29c-.18-.27-.4-.56-.74-.58a7.52,7.52,0,0,1,.4,1.81c-.36-.31-.63-.8-1-1.09,0,.29.06.54.1.81-.34-.12-.56-.54-.74-.87a4.12,4.12,0,0,1-.22,1c-.45-.36-.58-1.77-.64-2.22,0,.46,0,.9,0,1.36-.43-.56-.9-1.3-1.64-1.43-.1.43.3.87.52,1.27-.56-.15-1.41-.55-1.78.06a2.37,2.37,0,0,1,1.36.79,3,3,0,0,0-1.5.13,7.74,7.74,0,0,1,1.39,1,.72.72,0,0,1-.77.06c-.07.46,2.22,1.19,2.76,1.1a4.3,4.3,0,0,0,.28.81l1.68,3-.11-.09a10.32,10.32,0,0,0-3.53-1.61,1,1,0,0,0-.7-1,1.69,1.69,0,0,1,.08.24c-.28-.34-.41-.8-.7-1.09a1.74,1.74,0,0,0,.07.87c-.29-.1-1.36-1.27-1,0-.72-.24-1.24-1-1.94-1.23a7.6,7.6,0,0,0,.56,1.23c-.33-.13-.84-.73-1.2-.75s-.62.41-.32.82a2.85,2.85,0,0,0-1.48.13c.1.39.7.34,1,.53-.22.19-1.31.23-1.28.57s1.19.43,1.45.38a3.49,3.49,0,0,0-1,.9,11,11,0,0,0,1.93-.4,2.44,2.44,0,0,1-.1.24,1.75,1.75,0,0,0,1.12-.5c.47.58.9.3.82-.42a4.18,4.18,0,0,1,.37.56,1.09,1.09,0,0,0,.5-.93,5.86,5.86,0,0,1,.68.79c.08-.2.2-.54.26-.72.09.22.27.43.34.65a.81.81,0,0,0,.24-.76,3.06,3.06,0,0,1,.39.93l-.14-1a11.4,11.4,0,0,1,1.9,1,9.55,9.55,0,0,1,1.24,1,3.7,3.7,0,0,1,.61.66,1.43,1.43,0,0,0-.12.21.85.85,0,0,0-.17,0,10.45,10.45,0,0,0-1.57-.24l-.61,0a1.77,1.77,0,0,0,.82-.36,5.32,5.32,0,0,0-1.42.38h-.33c.26-.24.61-.57.29-.86-.37.55-2,.82-1.34-.08-.67.43-1.31,1-1.18-.21a2.34,2.34,0,0,1-1.4.45c0-.19,0-.27,0-.38-.39.24-1.32.91-1.43.17-.51,0-.86.33-1.33.42,0-.12-.06-.28-.06-.39-.34.73-1.15.76-1.75,1.08a5.21,5.21,0,0,0,1.53.25c-.36.25-.93.45-1.16.89a7,7,0,0,0,1.74-.39c-.1.44-.42.77-.52,1.2a3.15,3.15,0,0,0,1.56-1,13.44,13.44,0,0,0-.22,1.37,6.55,6.55,0,0,1,1.2-1.21,9.71,9.71,0,0,1,0,1.2,7.24,7.24,0,0,1,1.54-1.34,11.34,11.34,0,0,0,0,1.16c.34-.4.67-1,1.12-1.24a3,3,0,0,0,.17,1,2.63,2.63,0,0,1,1-.91c.28.31.3.87.75,1a1.21,1.21,0,0,1,.35-.93c.11.14.3.26.38.44-.1-.63.42-.86.72-.24a4.54,4.54,0,0,0,.12-.88,6.63,6.63,0,0,1,1.09.36,6.62,6.62,0,0,0,.15,2.05,15.8,15.8,0,0,0,.54,2.13c-.06,5.54,0,12.46.2,19.42l-13.41.24c-.21-3.5-.43-6.84-.69-9.68a10,10,0,0,0,.29-1.65,5,5,0,0,0,0-1.55,4.37,4.37,0,0,1,.79-.34,3.58,3.58,0,0,0,.14.65c.19-.48.61-.33.57.15,0-.15.18-.24.26-.35a1,1,0,0,1,.33.67c.32-.1.31-.52.5-.78a2,2,0,0,1,.78.63,2.73,2.73,0,0,0,.07-.76c.35.15.63.59.92.87a8.33,8.33,0,0,0,0-.87,5.65,5.65,0,0,1,1.24.91,6.88,6.88,0,0,1-.1-.9,4.68,4.68,0,0,1,1,.84,6.81,6.81,0,0,0-.24-1,2.25,2.25,0,0,0,1.24.66c-.1-.32-.36-.55-.46-.87a5,5,0,0,0,1.34.19c-.19-.31-.64-.43-.93-.6a4,4,0,0,0,1.15-.28c-.48-.21-1.09-.18-1.4-.72,0,.09,0,.21,0,.3-.36,0-.64-.28-1-.24,0,.58-.78.11-1.09,0,0,.08-.06.14,0,.28a1.8,1.8,0,0,1-1.08-.24c.16.92-.35.5-.88.21.56.65-.7.53-1,.15-.23.23,0,.46.27.63h-.25a3.82,3.82,0,0,0-1.1-.21,1.38,1.38,0,0,0,.64.23l-.46.06a8.06,8.06,0,0,0-1.18.27l-.13,0a.86.86,0,0,0-.1-.16,3.34,3.34,0,0,1,.43-.53,7.55,7.55,0,0,1,.88-.81,11.41,11.41,0,0,1,1.38-.86l-.05.74a2.63,2.63,0,0,1,.25-.73.61.61,0,0,0,.22.57c0-.17.17-.35.22-.51l.24.52a5.84,5.84,0,0,1,.47-.64.84.84,0,0,0,.43.69,4,4,0,0,1,.25-.46c0,.56.32.75.64.28a1.36,1.36,0,0,0,.88.32l-.09-.19a8,8,0,0,0,1.49.21,2.57,2.57,0,0,0-.8-.64c.2,0,1.08-.06,1.08-.36s-.82-.23-1-.37c.22-.16.68-.16.72-.46a2.12,2.12,0,0,0-1.12,0c.21-.32.07-.61-.28-.59s-.63.51-.88.63a6,6,0,0,0,.36-1c-.52.18-.87.82-1.4,1,.22-1-.53-.06-.73,0a1.51,1.51,0,0,0,0-.67,8.92,8.92,0,0,0-.47.86.58.58,0,0,1,0-.18.73.73,0,0,0-.47.77,10.87,10.87,0,0,0-1.56.69,9.61,9.61,0,0,0-1,.74.23.23,0,0,1-.07.07l1.1-2.35a3.16,3.16,0,0,0,.16-.64c.42,0,2.11-.64,2-1a.53.53,0,0,1-.59,0,5.52,5.52,0,0,1,1-.83,2.44,2.44,0,0,0-1.14,0,1.83,1.83,0,0,1,1-.68c-.31-.43-.94-.08-1.35.06.13-.32.42-.66.32-1-.55.15-.87.73-1.16,1.17a6.9,6.9,0,0,1-.09-1c0,.35,0,1.42-.36,1.72a3.06,3.06,0,0,1-.23-.76c-.12.27-.25.6-.51.7a5.86,5.86,0,0,0,0-.61c-.29.25-.47.63-.72.89a6,6,0,0,1,.2-1.4c-.26,0-.4.27-.52.48a4.58,4.58,0,0,0-.26-1.73c0,.57-.21,1.14-.2,1.75a2.47,2.47,0,0,1-.22-.76,9.18,9.18,0,0,0,.16,1.67.83.83,0,0,1-.26-.31,3.27,3.27,0,0,1,.14,1.45,1.81,1.81,0,0,1-.19-.25,4.77,4.77,0,0,0,.09.77c-.06-.07-.18-.16-.24-.24-.06.36.18.7.11,1a10.4,10.4,0,0,0-.56-.9c-.13-.2-.26-.36-.4-.55a2.52,2.52,0,0,0,0-1.49,3.16,3.16,0,0,0-.4.42c-.28-.61-.16-1.67-.76-.61-.13-.33-.16-.78-.26-1.15a2.5,2.5,0,0,0-.1,1.07c-.26,0-.44-.23-.67-.35a5.69,5.69,0,0,0,.47,1c-.09-.05-.28-.07-.37-.12.13.27,2.14,1.62,2.41,1.9a3.36,3.36,0,0,1,.41.8.48.48,0,0,1-.19-.09,1.39,1.39,0,0,0,.4.73,2.52,2.52,0,0,1,.56,1.54c-.33-.21-.67-.41-1-.6s-.75-.46-1.1-.69a.72.72,0,0,1-.15-.71c-.45.64-.86,0-.88-.48-.55.68-1-.55-1-1a1.67,1.67,0,0,0-.63.94,1.52,1.52,0,0,1-.62-1.2c-.25.29,0,1.2-.23,1.34s-.81-.49-.94-.61c.08.28.26.55.34.83-.29.13-.56-.08-.83-.15.08.2.57.47.57.64s-.27.32-.52.35c-.17-2.43-.35-4.75-.54-6.86a15.12,15.12,0,0,0,.38-2.17,6.64,6.64,0,0,0,0-2,6.64,6.64,0,0,1,1-.45,5.06,5.06,0,0,0,.18.86c.25-.64.8-.44.74.19a2,2,0,0,1,.35-.46,1.18,1.18,0,0,1,.42.89c.43-.13.42-.7.67-1a2.58,2.58,0,0,1,1,.83,2.77,2.77,0,0,0,.09-1c.47.2.83.77,1.21,1.14a10.67,10.67,0,0,0,0-1.14,7.19,7.19,0,0,1,1.64,1.2,7,7,0,0,1-.12-1.19,7.14,7.14,0,0,1,1.28,1.11,10.49,10.49,0,0,0-.32-1.35,3.07,3.07,0,0,0,1.64.88c-.14-.41-.48-.72-.61-1.15a6.56,6.56,0,0,0,1.76.25c-.26-.41-.84-.57-1.22-.79a5.07,5.07,0,0,0,1.51-.37c-.63-.27-1.44-.24-1.84-.94,0,.1,0,.27,0,.4-.48-.07-.86-.39-1.36-.32-.05.75-1,.14-1.44-.07,0,.11-.08.19,0,.39a2.38,2.38,0,0,1-1.43-.34c.23,1.23-.45.67-1.15.29.72.84-.93.7-1.34.18-.29.31.07.62.35.84l-.34,0a4.84,4.84,0,0,0-1.42-.28,1.87,1.87,0,0,0,.84.31l-.62.07a11.48,11.48,0,0,0-1.54.36c-.06,0-.12.05-.17.06A1.53,1.53,0,0,0,1024,87a5,5,0,0,1,.57-.7,9.64,9.64,0,0,1,1.16-1,12.11,12.11,0,0,1,1.82-1.14l-.07,1a2.88,2.88,0,0,1,.32-1,.81.81,0,0,0,.29.73c.06-.22.23-.44.29-.66.09.17.23.48.33.7a5.81,5.81,0,0,1,.61-.86,1.07,1.07,0,0,0,.56.9,4.15,4.15,0,0,1,.34-.59c0,.72.42,1,.84.37a2,2,0,0,0,1.16.42,2.68,2.68,0,0,0-.12-.24,12.35,12.35,0,0,0,2,.25,3.64,3.64,0,0,0-1-.83c.26,0,1.42-.08,1.42-.48s-1.09-.3-1.32-.48c.29-.2.9-.2,1-.6a2.75,2.75,0,0,0-1.48,0c.27-.43.09-.8-.38-.78s-.82.67-1.15.82a7.17,7.17,0,0,0,.47-1.27c-.68.24-1.14,1.09-1.83,1.37.28-1.3-.7-.06-1,.07a1.87,1.87,0,0,0,0-.88c-.27.31-.36.78-.62,1.13,0-.09,0-.14.06-.24a1,1,0,0,0-.62,1,13,13,0,0,0-2,.93,10.58,10.58,0,0,0-1.35,1s-.07.09-.11.1l1.46-3.1a4.2,4.2,0,0,0,.22-.83c.54,0,2.77-.84,2.67-1.31a.71.71,0,0,1-.78,0,8,8,0,0,1,1.31-1.1,3.17,3.17,0,0,0-1.5,0,2.43,2.43,0,0,1,1.3-.9c-.43-.58-1.24-.11-1.78.08.18-.42.54-.88.41-1.31-.72.19-1.13,1-1.51,1.55a12.28,12.28,0,0,1-.14-1.36c0,.46,0,1.87-.47,2.27a4.54,4.54,0,0,1-.29-1,1.82,1.82,0,0,1-.67.93c0-.27,0-.53,0-.82-.36.32-.6.83-.92,1.17a7.1,7.1,0,0,1,.25-1.84c-.33,0-.53.35-.69.64a5.9,5.9,0,0,0-.34-2.29c0,.76-.27,1.5-.26,2.31a3.19,3.19,0,0,1-.28-1,11.26,11.26,0,0,0,.2,2.18,1.24,1.24,0,0,1-.35-.39,4.27,4.27,0,0,1,.19,1.9c-.06-.1-.17-.2-.24-.32a5.57,5.57,0,0,0,.11,1c-.07-.1-.23-.21-.33-.32-.06.48.26.93.17,1.38-.23-.42-.48-.82-.74-1.2s-.36-.48-.54-.72a3.17,3.17,0,0,0-.06-2,5.5,5.5,0,0,0-.54.54c-.35-.8-.2-2.19-1-.8a12.59,12.59,0,0,1-.35-1.52,3.5,3.5,0,0,0-.14,1.42c-.34,0-.58-.3-.87-.46a7.75,7.75,0,0,0,.62,1.26c-.12-.06-.36-.09-.48-.16.15.35,2.8,2.13,3.16,2.5a4.27,4.27,0,0,1,.55,1.06.5.5,0,0,1-.25-.13,1.77,1.77,0,0,0,.51,1,3.36,3.36,0,0,1,.75,2c-.44-.27-.89-.54-1.32-.78s-1-.62-1.45-.91a1,1,0,0,1-.21-1c-.58.85-1.12.07-1.15-.62-.71.9-1.33-.73-1.33-1.32a1.82,1.82,0,0,0-.72.92.77.77,0,0,0-.58-.13,2.75,2.75,0,0,1-.36-1.14c-.2.25-.14.83-.15,1.27l-.55.22c.18-.42.55-.88.41-1.32a2.14,2.14,0,0,0-1.12.94l-.12-.14a.86.86,0,0,0,.07.21l-.35.54a12.1,12.1,0,0,1-.13-1.35,10.2,10.2,0,0,1-.14,1.52l-.09,0a.37.37,0,0,0,.06.1,1.27,1.27,0,0,1-.3.66,4.39,4.39,0,0,1-.3-1c-.16.35-.34.79-.66.93,0-.28,0-.52,0-.82a14.59,14.59,0,0,0-.94,1.17,7.11,7.11,0,0,1,.26-1.84c-.34,0-.53.35-.69.64a6,6,0,0,0-.34-2.28c0,.75-.27,1.5-.27,2.3a4.3,4.3,0,0,1-.28-1,12.11,12.11,0,0,0,.2,2.18,1.19,1.19,0,0,1-.34-.4,4.31,4.31,0,0,1,.19,1.91,3.27,3.27,0,0,1-.25-.32,7.82,7.82,0,0,0,.12,1c-.07-.09-.24-.2-.32-.31-.07.47.26.93.16,1.37-.24-.42-.48-.82-.74-1.2s-.36-.48-.54-.72a3.21,3.21,0,0,0-.06-2,5.62,5.62,0,0,0-.54.55c-.35-.79-.21-2.19-1-.79a12,12,0,0,1-.35-1.52,3.63,3.63,0,0,0-.14,1.41c-.34,0-.58-.3-.88-.45a7.8,7.8,0,0,0,.63,1.26c-.12-.07-.37-.1-.49-.17.16.35,2.81,2.13,3.17,2.52a4,4,0,0,1,.54,1,.39.39,0,0,1-.24-.12,1.84,1.84,0,0,0,.51,1,3.32,3.32,0,0,1,.75,2c-.44-.27-.89-.54-1.32-.78s-1-.6-1.46-.91a1,1,0,0,1-.2-.94c-.58.85-1.13.07-1.15-.62-.72.89-1.34-.73-1.34-1.33a2.25,2.25,0,0,0-.83,1.23,2,2,0,0,1-.81-1.58c-.32.39,0,1.58-.3,1.78s-1.08-.64-1.25-.8c.12.36.35.71.45,1.09-.38.15-.73-.12-1.09-.2.11.26.76.6.76.83,0,.45-.78.51-1.11.47.14.55.92.26,1.37.42a1.39,1.39,0,0,0-.54.45,18.4,18.4,0,0,0,2.47-.38,3.09,3.09,0,0,0-.14.32c.49-.11.69-.59,1-1,.42.24.43.65.76,1,.58.59.12.18.72,0,.33-.08.14-.52.54,0a1.24,1.24,0,0,1,.11.81,7.49,7.49,0,0,1,.45-.65c.31.14.59.3.87.46.53.29,1,.61,1.53.91l.13.09a3,3,0,0,0-.15.26l-.48.07c-.58.11-1.17.2-1.74.33a11.28,11.28,0,0,0-1.7.47,1.63,1.63,0,0,0-.31.11l-.21-.21a3.6,3.6,0,0,1-.57-1c0,.11,0,.32,0,.47a3.94,3.94,0,0,1-1.22-.88,10.05,10.05,0,0,1,.19,1.34,1.37,1.37,0,0,1-.74-.53,2.47,2.47,0,0,0,.44.83,8.35,8.35,0,0,1-1.67-.08,2.49,2.49,0,0,0,1.07,1.25,2.7,2.7,0,0,1-1.21.86c.9.12,1.84-.24,2.74-.08.15-.16.36-.26.46-.46.42.28.58.86.82,1.24a11.19,11.19,0,0,1,.16-2.54l-.08-.06.23-.06a14.12,14.12,0,0,1,1.71-.26c.59,0,1.15-.1,1.73-.11l.27,0a10,10,0,0,0,.78,2.56c.16.64.23,1.24.43,1.83.1,1.14.19,2.34.28,3.58a.92.92,0,0,1-.5.25,2.39,2.39,0,0,0-.1-1.08,9.26,9.26,0,0,1-.26,1.15c-.6-1-.48,0-.75.61a4.07,4.07,0,0,0-.41-.42,2.47,2.47,0,0,0,0,1.5c-.13.18-.27.35-.4.54s-.39.6-.57.91c-.07-.33.18-.68.12-1a2.72,2.72,0,0,1-.24.24,4.78,4.78,0,0,0,.09-.76,2.35,2.35,0,0,1-.19.25,3.59,3.59,0,0,1,.14-1.45.88.88,0,0,1-.26.3,8.37,8.37,0,0,0,.16-1.67,2.77,2.77,0,0,1-.22.76,2.18,2.18,0,0,0,0-.25c.08-.19.15-.38.24-.57-.19-.21-.21-.77-.39-.93a.07.07,0,0,0,0,0v.41a1.78,1.78,0,0,1,0-.46,1.5,1.5,0,0,0-.1.32v-.08a6.12,6.12,0,0,0-.52-.92c-.14.16-.24.2-.2.46-.2-.17-.24-.77-.4-.84a15.23,15.23,0,0,0,.58,2.37l-.15-.06a5.49,5.49,0,0,1,.19,1.4,8.29,8.29,0,0,0-.71-.88c0,.21,0,.4,0,.62a1.39,1.39,0,0,1-.5-.71,3,3,0,0,1-.23.75c-.32-.3-.33-1.37-.35-1.73,0,.36,0,.7-.1,1-.29-.44-.61-1-1.16-1.17-.1.32.18.69.32,1-.41-.14-1-.49-1.35-.06a1.85,1.85,0,0,1,1,.68,2.44,2.44,0,0,0-1.14,0,5.25,5.25,0,0,1,1,.84.55.55,0,0,1-.58,0c-.08.35,1.62,1,2,1a4.14,4.14,0,0,0,.15.63l1.12,2.35s-.06,0-.09-.07a7.63,7.63,0,0,0-1-.73,10.8,10.8,0,0,0-1.55-.7.74.74,0,0,0-.47-.77.65.65,0,0,1,0,.18c-.18-.26-.26-.62-.46-.86a1.27,1.27,0,0,0,0,.67c-.21-.09-1-1-.74,0-.53-.22-.88-.86-1.4-1a5.66,5.66,0,0,0,.36,1c-.25-.12-.61-.6-.87-.63s-.5.27-.3.59a2.13,2.13,0,0,0-1.12,0c.06.31.51.31.73.46-.17.14-1,.11-1,.37s.88.39,1.08.37a2.5,2.5,0,0,0-.79.62,8,8,0,0,0,1.48-.19s-.06.12-.1.18a1.48,1.48,0,0,0,.89-.31c.32.46.66.26.64-.28a2.4,2.4,0,0,1,.25.45.84.84,0,0,0,.43-.68,4.4,4.4,0,0,1,.47.64l.25-.53c0,.16.18.34.21.5a.6.6,0,0,0,.23-.55,2.51,2.51,0,0,1,.24.73l0-.74a8.86,8.86,0,0,1,1.38.86,7.39,7.39,0,0,1,.88.8,3.85,3.85,0,0,1,.43.53l-.11.16-.12,0a6.36,6.36,0,0,0-1.17-.27l-.47-.07a1.38,1.38,0,0,0,.64-.23,4,4,0,0,0-1.09.21h-.26c.22-.17.5-.4.27-.64-.31.4-1.56.5-1-.14-.53.3-1,.72-.87-.22a1.84,1.84,0,0,1-1.09.26c0-.15,0-.21,0-.3-.31.16-1,.63-1.09.06-.38-.06-.68.19-1,.24a1.55,1.55,0,0,1,0-.3c-.31.52-.93.5-1.4.71a4.14,4.14,0,0,0,1.14.28c-.28.17-.72.29-.92.61a5.1,5.1,0,0,0,1.34-.19c-.1.32-.36.55-.47.87a2.36,2.36,0,0,0,1.25-.67,8.11,8.11,0,0,0-.25,1,4.74,4.74,0,0,1,1-.85,6.91,6.91,0,0,1-.11.9,6.11,6.11,0,0,1,1.26-.91,6.26,6.26,0,0,0,0,.87c.29-.28.57-.71.92-.87a2.49,2.49,0,0,0,.07.77,2.14,2.14,0,0,1,.78-.64c.19.26.18.68.51.78a.93.93,0,0,1,.32-.67,1.52,1.52,0,0,1,.26.35c0-.48.37-.62.56-.14a3.14,3.14,0,0,0,.15-.66,5.65,5.65,0,0,1,.8.34,4.8,4.8,0,0,0,0,1.56,9.86,9.86,0,0,0,.28,1.64c-.12,1.42-.24,3-.36,4.65-4.5,0-9.09,0-13.48,0-.21-3.62-.44-7.08-.71-10a10,10,0,0,0,.29-1.65,5,5,0,0,0,0-1.55,5.08,5.08,0,0,1,.79-.34c0,.22.1.44.14.65.2-.48.61-.33.57.15.05-.15.19-.24.26-.35a.94.94,0,0,1,.33.67c.32-.1.31-.52.51-.78a2.08,2.08,0,0,1,.77.63,2.4,2.4,0,0,0,.08-.76c.35.15.63.59.91.87a8.33,8.33,0,0,0,0-.87,5.42,5.42,0,0,1,1.24.91c-.07-.28,0-.62-.09-.9a4.94,4.94,0,0,1,1,.84c-.06-.32-.14-.68-.24-1a2.22,2.22,0,0,0,1.24.66c-.1-.32-.36-.55-.46-.87a5,5,0,0,0,1.33.19c-.19-.31-.64-.43-.92-.6a4.05,4.05,0,0,0,1.14-.28c-.47-.21-1.09-.18-1.39-.72,0,.09,0,.21,0,.3-.36,0-.65-.28-1-.24,0,.58-.79.11-1.09,0,0,.08-.06.14,0,.28a1.83,1.83,0,0,1-1.09-.24c.17.92-.35.5-.88.21.56.65-.69.53-1,.15-.23.23,0,.46.26.63H994a3.76,3.76,0,0,0-1.09-.21,1.34,1.34,0,0,0,.64.23l-.47.06a7.93,7.93,0,0,0-1.17.27l-.14,0a.39.39,0,0,0-.1-.16,3.34,3.34,0,0,1,.43-.53,8.45,8.45,0,0,1,.88-.81,11.41,11.41,0,0,1,1.38-.86l0,.74a2.32,2.32,0,0,1,.24-.73.64.64,0,0,0,.23.57,4.55,4.55,0,0,1,.21-.51c.06.13.18.37.24.52a5.93,5.93,0,0,1,.48-.64.83.83,0,0,0,.42.69c0-.16.2-.33.25-.46,0,.56.33.75.65.28a1.32,1.32,0,0,0,.88.32c0-.06-.06-.13-.1-.19a8,8,0,0,0,1.49.21,2.46,2.46,0,0,0-.8-.64c.21,0,1.09-.06,1.09-.36s-.83-.23-1-.37c.21-.16.67-.16.72-.46a2.13,2.13,0,0,0-1.12,0c.2-.32.06-.61-.29-.59s-.63.51-.87.63a5.94,5.94,0,0,0,.35-1c-.52.18-.86.82-1.39,1,.21-1-.54-.06-.74,0a1.51,1.51,0,0,0,0-.67c-.21.24-.28.6-.47.86a1.21,1.21,0,0,1,0-.18.73.73,0,0,0-.48.77,11.39,11.39,0,0,0-1.56.69,10.73,10.73,0,0,0-1,.74.23.23,0,0,1-.07.07l1.1-2.35a3.16,3.16,0,0,0,.17-.64c.4,0,2.11-.64,2-1a.53.53,0,0,1-.59,0,5.25,5.25,0,0,1,1-.83,2.48,2.48,0,0,0-1.15,0,1.83,1.83,0,0,1,1-.68c-.31-.43-.94-.08-1.35.06.15-.32.43-.66.33-1-.55.15-.87.73-1.16,1.17a8.59,8.59,0,0,1-.1-1c0,.35,0,1.42-.36,1.72a3.54,3.54,0,0,1-.23-.76c-.12.27-.25.6-.5.7a6,6,0,0,0,0-.61c-.28.25-.46.63-.7.89a5.09,5.09,0,0,1,.2-1.4.82.82,0,0,0-.53.48,4.58,4.58,0,0,0-.26-1.73c0,.57-.21,1.14-.2,1.75a2.45,2.45,0,0,1-.21-.76,9.18,9.18,0,0,0,.15,1.67.94.94,0,0,1-.26-.31,3.6,3.6,0,0,1,.15,1.45,1.82,1.82,0,0,1-.2-.25,4.76,4.76,0,0,0,.1.77c-.06-.07-.18-.16-.24-.24-.06.36.18.7.1,1a8.33,8.33,0,0,0-.55-.9c-.13-.2-.27-.36-.41-.55a2.53,2.53,0,0,0,0-1.49,4.07,4.07,0,0,0-.41.42c-.27-.61-.16-1.67-.75-.61,0-.05,0-.11,0-.15.18-.58.26-1.17.41-1.79a10.1,10.1,0,0,0,.78-2.56l.26,0c.59,0,1.16.06,1.74.11a16.22,16.22,0,0,1,1.7.26,1,1,0,0,1,.24.07l-.07.06a11.23,11.23,0,0,1,.15,2.54c.23-.39.4-1,.82-1.25.1.21.31.3.47.46.89-.16,1.84.2,2.73.08a2.67,2.67,0,0,1-1.21-.86,2.49,2.49,0,0,0,1.07-1.25,8.35,8.35,0,0,1-1.67.08,2.05,2.05,0,0,0,.44-.82,1.29,1.29,0,0,1-.73.52,10.45,10.45,0,0,1,.17-1.34c-.24.4-.8.62-1.21.88,0-.14-.05-.35-.05-.47a3.34,3.34,0,0,1-.57,1l-.21.21c-.1,0-.19-.08-.31-.11a12.59,12.59,0,0,0-1.7-.47c-.57-.12-1.16-.22-1.74-.33l-.48-.07a1.2,1.2,0,0,0-.16-.25l.15-.1c.49-.3,1-.62,1.52-.91l.86-.46a3.66,3.66,0,0,1,.45.66,1.34,1.34,0,0,1,.12-.82c.4-.46.21,0,.54.05.6.16.14.57.72,0,.33-.34.34-.74.76-1,.28.36.47.84,1,.95a3.05,3.05,0,0,1-.13-.32,18.52,18.52,0,0,0,2.46.39,1.25,1.25,0,0,0-.53-.46c.45-.16,1.21.14,1.36-.4-.33,0-1.1,0-1.11-.48,0-.23.66-.58.76-.84-.36.08-.72.35-1.08.2.09-.37.32-.72.44-1.09-.18.16-.84,1.07-1.24.8s0-1.4-.3-1.78c0,.54-.34,1.38-.82,1.58a2.15,2.15,0,0,0-.84-1.22c0,.58-.61,2.21-1.33,1.32,0,.69-.57,1.47-1.16.63a.94.94,0,0,1-.2.94c-.46.3-1,.62-1.45.91s-.87.51-1.31.77a3.31,3.31,0,0,1,.74-2,1.81,1.81,0,0,0,.52-1,.48.48,0,0,1-.24.13,4,4,0,0,1,.53-1.06c.35-.38,3-2.15,3.17-2.5-.12.07-.37.1-.48.16a9.19,9.19,0,0,0,.62-1.26c-.3.16-.54.44-.88.46a3.66,3.66,0,0,0-.14-1.42,11.28,11.28,0,0,1-.35,1.52c-.78-1.39-.63,0-1,.79-.12-.2-.38-.36-.52-.53a3.23,3.23,0,0,0-.08,2c-.17.24-.36.46-.52.71a13.31,13.31,0,0,0-.74,1.2c-.1-.44.22-.89.15-1.37-.08.11-.24.22-.31.32a6.78,6.78,0,0,0,.11-1,3.27,3.27,0,0,1-.25.32,4.27,4.27,0,0,1,.19-1.9,1.43,1.43,0,0,1-.34.4,12.14,12.14,0,0,0,.19-2.19,3.17,3.17,0,0,1-.28,1c0-.81-.3-1.56-.26-2.31a5.9,5.9,0,0,0-.34,2.29c-.16-.29-.35-.59-.69-.64a7,7,0,0,1,.26,1.84c-.33-.34-.57-.84-.94-1.17,0,.29,0,.55,0,.81-.32-.14-.51-.57-.66-.92a4.57,4.57,0,0,1-.31,1c-.41-.4-.44-1.81-.46-2.27,0,.46-.07.91-.13,1.36-.39-.59-.8-1.36-1.52-1.55-.13.43.23.89.41,1.31-.21-.08-.49-.2-.75-.28a1.48,1.48,0,0,0-.14-.68c-.05.2-.08.41-.12.62a.73.73,0,0,0-.76.26,3.07,3.07,0,0,1,.64.29,2.47,2.47,0,0,1-.1.35c-.79-1.39-.64,0-1,.79a6.72,6.72,0,0,0-.54-.53,3.23,3.23,0,0,0-.08,2c-.18.24-.36.46-.52.71l-.09.14c-.24-.22-.47-.46-.72-.65a1.37,1.37,0,0,0,0-.35,1.08,1.08,0,0,1-.18.23l-.1-.05a5.19,5.19,0,0,1,.22-1.76,1.28,1.28,0,0,1-.34.4,12.14,12.14,0,0,0,.2-2.19,3.48,3.48,0,0,1-.29,1c0-.81-.3-1.56-.26-2.31a6.1,6.1,0,0,0-.34,2.29c-.16-.29-.35-.59-.69-.64a7,7,0,0,1,.26,1.84c-.33-.34-.57-.84-.94-1.17,0,.29,0,.55,0,.81-.32-.14-.5-.57-.66-.92a4.55,4.55,0,0,1-.3,1c-.42-.4-.45-1.81-.47-2.27,0,.46-.07.91-.13,1.36-.38-.59-.8-1.36-1.52-1.55-.13.43.24.89.41,1.31-.53-.2-1.35-.66-1.78-.08a2.37,2.37,0,0,1,1.31.9,3.21,3.21,0,0,0-1.51,0,7.63,7.63,0,0,1,1.31,1.11.71.71,0,0,1-.78,0c-.1.46,2.14,1.36,2.68,1.31a5.17,5.17,0,0,0,.2.82l.4.85a.18.18,0,0,0-.1.15c0,.13.14.23.32.31l.34.72a2.47,2.47,0,0,0-.28.28l.4,0,.23.49-.19.06-.18-.13a1,1,0,0,1,0-.24c0,.06-.07.1-.1.16a7,7,0,0,0-.83-.55,12.15,12.15,0,0,0-2-.93,1,1,0,0,0-.62-1c0,.1,0,.15.06.24-.25-.36-.35-.82-.62-1.13a2,2,0,0,0,0,.87c-.27-.12-1.25-1.37-1-.06-.7-.29-1.16-1.14-1.84-1.38a8.28,8.28,0,0,0,.47,1.29c-.32-.17-.79-.81-1.15-.84s-.64.35-.38.79a2.57,2.57,0,0,0-1.48,0c.06.4.68.4,1,.61-.23.16-1.32.12-1.32.47s1.16.51,1.43.49a3.22,3.22,0,0,0-1,.82,11.42,11.42,0,0,0,2-.25,1.61,1.61,0,0,0-.12.23,1.92,1.92,0,0,0,1.15-.41c.43.61.87.35.85-.37a4.14,4.14,0,0,1,.33.6,1.18,1.18,0,0,0,.57-.9,6.77,6.77,0,0,1,.6.85l.33-.71c.07.22.23.45.29.67a.77.77,0,0,0,.29-.73,2.94,2.94,0,0,1,.32,1l-.06-1a12,12,0,0,1,1.81,1.14,6.76,6.76,0,0,1,.64.54c-.41.21-.9.26-1.31.44a3,3,0,0,0,.5.19c-.4,0-.77.2-1.15.26H974c.28-.22.64-.53.35-.84-.41.52-2.06.66-1.33-.18-.7.38-1.38.94-1.16-.3a2.31,2.31,0,0,1-1.42.34c0-.19,0-.26,0-.38-.4.21-1.39.82-1.43.06-.5-.06-.89.26-1.36.32a2.68,2.68,0,0,1,0-.4,1.51,1.51,0,0,1-1,.67,1.49,1.49,0,0,1-.95-.67c0,.12,0,.28,0,.4-.47-.06-.85-.38-1.36-.32,0,.76-1,.15-1.43-.06,0,.12-.08.19,0,.38a2.31,2.31,0,0,1-1.42-.34c.22,1.24-.46.68-1.16.3.74.84-.92.7-1.33.18-.29.31.08.62.35.84H959a5.09,5.09,0,0,0-1.44-.27,1.85,1.85,0,0,0,.84.3c-.2,0-.4,0-.6.08a9.4,9.4,0,0,0-1.55.36,1.15,1.15,0,0,0-.17.06,1,1,0,0,0-.14-.21,4.32,4.32,0,0,1,.57-.71,11.36,11.36,0,0,1,1.15-1,12.21,12.21,0,0,1,1.83-1.14l-.07,1a3.19,3.19,0,0,1,.32-1,.8.8,0,0,0,.3.73c.05-.22.22-.45.28-.67.09.18.23.5.32.71a6,6,0,0,1,.62-.85,1.13,1.13,0,0,0,.57.9,3.36,3.36,0,0,1,.32-.6c0,.72.43,1,.86.37a1.87,1.87,0,0,0,1.15.41c0-.08-.08-.18-.12-.23a11.43,11.43,0,0,0,2,.25,3.18,3.18,0,0,0-1-.82c.26,0,1.42-.09,1.42-.49s-1.09-.31-1.32-.47c.29-.21.89-.21,1-.61a2.57,2.57,0,0,0-1.48,0c.26-.44.1-.8-.38-.79s-.82.67-1.14.84a8.24,8.24,0,0,0,.46-1.29c-.69.24-1.14,1.09-1.83,1.38.27-1.31-.71-.06-1,.06a1.83,1.83,0,0,0,0-.87c-.27.31-.36.77-.61,1.13a1.2,1.2,0,0,1,.06-.24,1,1,0,0,0-.62,1,13.13,13.13,0,0,0-2.06.93,11.68,11.68,0,0,0-1.35,1,.93.93,0,0,0-.1.1l1.45-3.11a4.28,4.28,0,0,0,.21-.82c.54,0,2.78-.85,2.68-1.31a.69.69,0,0,1-.77,0,8,8,0,0,1,1.3-1.11,3.17,3.17,0,0,0-1.5,0,2.36,2.36,0,0,1,1.29-.9c-.41-.58-1.24-.12-1.77.08.17-.42.55-.88.41-1.31-.72.19-1.14,1-1.52,1.55a10.26,10.26,0,0,1-.12-1.36c0,.46-.06,1.87-.48,2.27a4.54,4.54,0,0,1-.29-1c-.16.35-.35.78-.67.92,0-.26,0-.52,0-.81-.37.33-.61.83-.94,1.17a7,7,0,0,1,.26-1.84c-.33,0-.52.35-.69.64a6.09,6.09,0,0,0-.33-2.29c0,.75-.28,1.5-.28,2.31a3.79,3.79,0,0,1-.27-1,11.29,11.29,0,0,0,.2,2.19,1.17,1.17,0,0,1-.34-.4,4.41,4.41,0,0,1,.18,1.9,2.22,2.22,0,0,1-.24-.32,6.78,6.78,0,0,0,.11,1c-.07-.1-.23-.21-.32-.32-.06.48.26.93.16,1.37-.24-.41-.48-.82-.74-1.2s-.36-.47-.53-.71c.1-.66.21-1.61-.08-2a6.62,6.62,0,0,0-.53.53c-.35-.79-.2-2.18-1-.79a15.46,15.46,0,0,1-.35-1.52,3.66,3.66,0,0,0-.14,1.42c-.34,0-.58-.3-.88-.46a7.41,7.41,0,0,0,.63,1.26c-.12-.06-.36-.09-.48-.16.15.35,2.81,2.12,3.16,2.5a4.08,4.08,0,0,1,.54,1.06.44.44,0,0,1-.24-.13,1.75,1.75,0,0,0,.52,1,3.37,3.37,0,0,1,.74,2c-.44-.26-.89-.53-1.32-.77s-1-.61-1.45-.91a1,1,0,0,1-.2-.94c-.58.84-1.13.06-1.16-.63-.72.89-1.34-.74-1.34-1.32a2.12,2.12,0,0,0-.82,1.22,2,2,0,0,1-.82-1.58c-.33.38,0,1.58-.3,1.78s-1.08-.64-1.25-.8c.12.37.35.72.45,1.09-.38.15-.73-.12-1.09-.2.11.26.76.61.76.84,0,.44-.78.5-1.1.48.14.54.91.24,1.36.4a1.27,1.27,0,0,0-.54.46,18.41,18.41,0,0,0,2.47-.39,2.69,2.69,0,0,0-.13.32c.48-.11.68-.59,1-.95.43.24.43.64.76,1,.58.59.12.18.72,0,.34-.08.14-.51.54-.05a1.27,1.27,0,0,1,.11.82,6.37,6.37,0,0,1,.45-.66l.87.46c.53.29,1,.61,1.53.91l.14.1a1.2,1.2,0,0,0-.16.25l-.48.07c-.58.11-1.17.21-1.74.33a12.59,12.59,0,0,0-1.7.47l-.31.11-.21-.21a3.12,3.12,0,0,1-.56-1c0,.12-.06.33-.06.47a3.89,3.89,0,0,1-1.22-.88,9,9,0,0,1,.19,1.34,1.29,1.29,0,0,1-.73-.52,2.05,2.05,0,0,0,.44.82,8.59,8.59,0,0,1-1.69-.08,2.56,2.56,0,0,0,1.08,1.25,2.67,2.67,0,0,1-1.21.86c.9.12,1.85-.24,2.74-.08.15-.16.36-.25.46-.46.42.28.59.86.82,1.25a11.19,11.19,0,0,1,.16-2.54l-.08-.06a1.09,1.09,0,0,1,.24-.07,16.22,16.22,0,0,1,1.7-.26c.59,0,1.15-.09,1.74-.11l.27,0a10.49,10.49,0,0,0,.77,2.56c.15.64.23,1.25.43,1.83.47,5.41.88,12.16,1.24,19-5.4-.15-11.29-.3-16.8-.43-.41-3.15-.83-6.16-1.23-8.73a11.24,11.24,0,0,0,.17-1.67,4.78,4.78,0,0,0-.11-1.54,4.41,4.41,0,0,1,.78-.4,3.61,3.61,0,0,0,.19.64c.15-.49.58-.38.57.12a2,2,0,0,1,.24-.38,1,1,0,0,1,.37.66c.32-.13.28-.55.45-.82a2,2,0,0,1,.82.58,2.42,2.42,0,0,0,0-.76c.36.12.67.54,1,.8a8.27,8.27,0,0,0-.1-.87,5.62,5.62,0,0,1,1.3.83c-.09-.28-.09-.62-.15-.9a5.65,5.65,0,0,1,1,.78,8.39,8.39,0,0,0-.32-1,2.36,2.36,0,0,0,1.28.59c-.12-.32-.39-.53-.51-.85a5.52,5.52,0,0,0,1.34.11c-.21-.3-.66-.4-1-.54a4.2,4.2,0,0,0,1.12-.36c-.49-.18-1.09-.1-1.44-.62,0,.08,0,.21,0,.3-.36,0-.67-.24-1-.17,0,.57-.76.16-1.09,0,0,.09,0,.15,0,.3a1.86,1.86,0,0,1-1.1-.18c.23.92-.32.53-.87.28.61.6-.65.57-1,.21-.21.24.08.46.31.61l-.25,0a4.17,4.17,0,0,0-1.11-.14,1.34,1.34,0,0,0,.66.2l-.47.08a9.5,9.5,0,0,0-1.15.35l-.13.06a.42.42,0,0,0-.11-.15,3.24,3.24,0,0,1,.4-.56,6.67,6.67,0,0,1,.82-.86,10.34,10.34,0,0,1,1.32-1v.75a2.31,2.31,0,0,1,.2-.75.62.62,0,0,0,.26.55c0-.18.14-.36.18-.53l.28.51a3.92,3.92,0,0,1,.42-.66.81.81,0,0,0,.48.64,3.31,3.31,0,0,1,.21-.46c0,.55.37.71.66.23a1.37,1.37,0,0,0,.9.25,1.51,1.51,0,0,0-.1-.17,9.3,9.3,0,0,0,1.5.1,2.53,2.53,0,0,0-.84-.58c.2,0,1.07-.13,1-.44s-.83-.17-1-.29c.21-.17.67-.21.69-.52a2.26,2.26,0,0,0-1.12.07c.18-.34,0-.61-.33-.57s-.58.55-.82.69a7,7,0,0,0,.29-1c-.52.21-.81.88-1.32,1.13.14-1-.54,0-.74.1a1.51,1.51,0,0,0,0-.67,9.17,9.17,0,0,0-.41.9,1.08,1.08,0,0,1,0-.19.72.72,0,0,0-.42.79,12.16,12.16,0,0,0-1.51.81,9.37,9.37,0,0,0-1,.8l-.07.08.94-2.43a3.16,3.16,0,0,0,.11-.64c.42,0,2.07-.78,2-1.12a.55.55,0,0,1-.59,0,5.64,5.64,0,0,1,.94-.89A2.21,2.21,0,0,0,940,95a1.84,1.84,0,0,1,.94-.75c-.36-.41-1,0-1.35.15.11-.32.37-.69.24-1-.54.18-.8.79-1.07,1.26-.06-.34-.13-.68-.17-1,0,.36.06,1.42-.24,1.74a3.15,3.15,0,0,1-.27-.73,1.27,1.27,0,0,1-.47.73,4.14,4.14,0,0,0,0-.61,11.15,11.15,0,0,0-.65.93,5.11,5.11,0,0,1,.1-1.41c-.25,0-.39.29-.49.52a4.35,4.35,0,0,0-.38-1.71c.07.57-.12,1.15-.08,1.75a2.54,2.54,0,0,1-.26-.73,9,9,0,0,0,.26,1.65,1.11,1.11,0,0,1-.28-.29,3.41,3.41,0,0,1,.25,1.43,1.47,1.47,0,0,1-.21-.22,4.72,4.72,0,0,0,.14.75c-.06-.07-.19-.15-.26-.22,0,.36.24.68.19,1-.19-.29-.41-.59-.62-.86s-.29-.35-.44-.52c.05-.5.08-1.24-.15-1.48a3.25,3.25,0,0,0-.38.44c-.31-.59-.26-1.65-.79-.56-.15-.32-.22-.76-.35-1.13a3,3,0,0,0,0,1.08c-.26,0-.46-.2-.69-.3a5.62,5.62,0,0,0,.53.92c-.08,0-.27,0-.36-.1.13.26,2.23,1.47,2.52,1.75a2.75,2.75,0,0,1,.46.76.52.52,0,0,1-.19-.08,1.4,1.4,0,0,0,.44.7,2.56,2.56,0,0,1,.67,1.5c-.34-.19-.7-.37-1-.53s-.77-.41-1.15-.61a.75.75,0,0,1-.19-.71c-.4.67-.86.11-.92-.41-.49.72-1-.48-1.08-.93a1.64,1.64,0,0,0-.56,1,1.58,1.58,0,0,1-.71-1.16c-.22.31.09,1.2-.12,1.36s-.85-.43-1-.54c.11.27.3.52.39.8-.28.15-.56,0-.83-.09.09.19.61.42.62.59,0,.34-.57.43-.82.43.14.4.71.14,1.06.24a.91.91,0,0,0-.39.36,12.7,12.7,0,0,0,1.85-.41,1.83,1.83,0,0,0-.08.25c.36-.11.49-.49.67-.78.34.16.37.47.63.72.47.4.1.12.56,0,.24-.08.07-.4.4-.07a1,1,0,0,1,.12.61,5.43,5.43,0,0,1,.32-.51c.22.08.45.2.68.3.4.19.8.41,1.19.61l.11.07a1.23,1.23,0,0,0-.1.2l-.36.07c-.44.11-.87.22-1.3.35a10,10,0,0,0-1.27.43L933,102l-.17-.16a3.12,3.12,0,0,1-.48-.72c0,.08,0,.24,0,.34a2.57,2.57,0,0,1-1-.6,7.07,7.07,0,0,1,.2,1,1,1,0,0,1-.58-.37,1.88,1.88,0,0,0,.38.61,6.87,6.87,0,0,1-1.28,0,2,2,0,0,0,.88.89,2,2,0,0,1-.87.71c.68,0,1.38-.27,2.08-.2.1-.12.25-.21.32-.37.33.19.49.62.68.9a8.32,8.32,0,0,1,0-1.93l-.05,0a.67.67,0,0,1,.17-.07,11,11,0,0,1,1.27-.27c.44-.07.88-.14,1.31-.18l.21,0a7.23,7.23,0,0,0,.72,1.89c.14.47.24.93.41,1.37.39,2.5.79,5.41,1.19,8.46l-16.89-.38c.35-6.52.74-12.94,1.19-18.13.2-.58.28-1.19.43-1.83A10.1,10.1,0,0,0,924,90.4l.27,0c.58,0,1.14.06,1.73.11a17,17,0,0,1,1.72.26,1.11,1.11,0,0,1,.22.07l-.08.06a10.15,10.15,0,0,1,.16,2.54c.23-.39.41-1,.82-1.25.1.21.32.3.47.46.89-.16,1.84.2,2.73.08a2.76,2.76,0,0,1-1.22-.86c.43-.31,1-.73,1.08-1.25a8.35,8.35,0,0,1-1.67.08,2.19,2.19,0,0,0,.44-.82,1.29,1.29,0,0,1-.73.52,9,9,0,0,1,.18-1.34,3.74,3.74,0,0,1-1.21.88c0-.14-.06-.35-.06-.47a3.34,3.34,0,0,1-.57,1l-.2.21c-.11,0-.2-.08-.32-.11a12.59,12.59,0,0,0-1.7-.47c-.57-.12-1.16-.22-1.74-.33l-.47-.07a1.8,1.8,0,0,0-.17-.25l.15-.1c.49-.3,1-.62,1.52-.91l.87-.46a5.11,5.11,0,0,1,.45.66,1.33,1.33,0,0,1,.11-.82c.4-.46.21,0,.54.05.6.16.14.57.73,0,.32-.34.33-.74.75-1,.28.36.48.84,1,.95,0-.09-.09-.22-.14-.32a18.41,18.41,0,0,0,2.47.39,1.25,1.25,0,0,0-.53-.46c.44-.16,1.22.14,1.36-.4-.32,0-1.1,0-1.11-.48,0-.23.66-.58.76-.84-.36.08-.71.35-1.09.2.1-.37.33-.72.45-1.09-.18.16-.85,1.07-1.24.8s0-1.4-.3-1.78c0,.54-.33,1.38-.83,1.58a2.12,2.12,0,0,0-.82-1.22c0,.58-.62,2.21-1.33,1.32,0,.69-.57,1.47-1.16.63a1,1,0,0,1-.21.94c-.46.3-1,.62-1.45.91s-.87.51-1.32.77a3.42,3.42,0,0,1,.75-2,1.75,1.75,0,0,0,.52-1,.47.47,0,0,1-.25.13,4.41,4.41,0,0,1,.54-1.06c.36-.38,3-2.15,3.17-2.5-.12.07-.36.1-.48.16a8.17,8.17,0,0,0,.62-1.26c-.3.16-.54.44-.88.46a3.66,3.66,0,0,0-.13-1.42,15.46,15.46,0,0,1-.35,1.52c-.79-1.39-.63,0-1,.79a6.82,6.82,0,0,0-.55-.53,3.25,3.25,0,0,0-.06,2c-.18.24-.36.46-.53.71s-.51.79-.75,1.2c-.09-.44.23-.89.16-1.37-.08.11-.24.22-.32.32a5.69,5.69,0,0,0,.12-1,3.27,3.27,0,0,1-.25.32,4.57,4.57,0,0,1,.19-1.9,1.28,1.28,0,0,1-.34.4,11.29,11.29,0,0,0,.2-2.19,3.81,3.81,0,0,1-.28,1c0-.81-.31-1.56-.26-2.31a6.1,6.1,0,0,0-.35,2.29,1,1,0,0,0-.69-.64,7,7,0,0,1,.26,1.84c-.33-.34-.56-.84-.93-1.17a7,7,0,0,0,0,.81c-.33-.14-.51-.57-.67-.92a4.06,4.06,0,0,1-.3,1c-.42-.4-.44-1.81-.47-2.27,0,.46-.07.91-.13,1.36-.38-.59-.8-1.36-1.51-1.55-.14.43.23.89.41,1.31-.55-.2-1.36-.66-1.78-.08a2.32,2.32,0,0,1,1.29.9,3.17,3.17,0,0,0-1.5,0,7.63,7.63,0,0,1,1.31,1.11.71.71,0,0,1-.78,0c-.1.46,2.14,1.36,2.68,1.31a4.28,4.28,0,0,0,.21.82l1.46,3.11-.1-.1a11.8,11.8,0,0,0-1.36-1,12.92,12.92,0,0,0-2-.93,1,1,0,0,0-.63-1c0,.1,0,.15.06.24-.25-.36-.35-.82-.62-1.13a2,2,0,0,0,0,.87c-.27-.12-1.25-1.37-1-.06-.7-.29-1.15-1.14-1.84-1.38a7.41,7.41,0,0,0,.48,1.29c-.34-.17-.8-.81-1.16-.84s-.64.35-.38.79a2.54,2.54,0,0,0-1.47,0c.06.4.67.4,1,.61-.23.16-1.33.12-1.33.47s1.16.51,1.43.49a3.32,3.32,0,0,0-1,.82,11.55,11.55,0,0,0,2-.25,1.61,1.61,0,0,0-.12.23,2,2,0,0,0,1.16-.41c.42.61.86.35.84-.37a3.37,3.37,0,0,1,.33.6,1.18,1.18,0,0,0,.57-.9,6.82,6.82,0,0,1,.61.85c.09-.21.24-.53.32-.71.07.22.23.45.29.67a.83.83,0,0,0,.3-.73,3.48,3.48,0,0,1,.31,1l-.07-1a11.72,11.72,0,0,1,1.83,1.14,10.38,10.38,0,0,1,1.15,1,4.32,4.32,0,0,1,.57.71.67.67,0,0,0-.13.21,1.15,1.15,0,0,0-.17-.06,9.53,9.53,0,0,0-1.54-.36c-.22,0-.42,0-.62-.08a1.85,1.85,0,0,0,.84-.3,5,5,0,0,0-1.43.27h-.34c.29-.22.65-.53.35-.84-.41.52-2.06.66-1.33-.18-.7.38-1.38.94-1.16-.3a2.31,2.31,0,0,1-1.42.34c0-.19,0-.26,0-.38-.42.21-1.39.82-1.44.06-.51-.06-.89.26-1.37.32a2.67,2.67,0,0,1,0-.4c-.41.7-1.21.67-1.84.94a4.79,4.79,0,0,0,1.49.37c-.36.23-.95.38-1.2.8a6.49,6.49,0,0,0,1.75-.25c-.12.42-.47.73-.61,1.15a3,3,0,0,0,1.64-.88,10.11,10.11,0,0,0-.32,1.35,6.92,6.92,0,0,1,1.29-1.12,10,10,0,0,1-.12,1.2,7.55,7.55,0,0,1,1.64-1.21,8.7,8.7,0,0,0-.05,1.15c.38-.37.75-.94,1.21-1.15a3.07,3.07,0,0,0,.1,1,2.73,2.73,0,0,1,1-.84c.26.34.24.9.67,1a1.18,1.18,0,0,1,.42-.89c.11.15.28.27.34.46,0-.63.5-.83.75-.19a4.39,4.39,0,0,0,.18-.86,5.8,5.8,0,0,1,1,.44,6.76,6.76,0,0,0,0,2.06,13.12,13.12,0,0,0,.37,2.17c-.46,5.23-.87,11.74-1.22,18.34l-2.65,0v-2.28h-5.16c.14-2.08.28-4,.44-5.82.15-.46.21-.92.33-1.4a8.35,8.35,0,0,0,.59-1.94h.19c.45,0,.88,0,1.32.09a11.31,11.31,0,0,1,1.3.19l.18,0-.06.05a8.33,8.33,0,0,1,.12,1.93c.17-.3.3-.74.62-1,.08.16.24.23.35.35.68-.12,1.4.14,2.09.06a2.1,2.1,0,0,1-.93-.66,1.78,1.78,0,0,0,.82-.94,6.64,6.64,0,0,1-1.27.06,1.87,1.87,0,0,0,.33-.62.92.92,0,0,1-.55.39,5.09,5.09,0,0,1,.13-1c-.18.31-.62.47-.92.67,0-.11,0-.26,0-.35a2.92,2.92,0,0,1-.43.77l-.16.15c-.08,0-.15-.06-.24-.09a9.41,9.41,0,0,0-1.29-.34c-.44-.1-.88-.18-1.32-.26l-.36,0a1,1,0,0,0-.13-.19l.11-.08c.38-.23.76-.47,1.16-.69l.65-.35a3.23,3.23,0,0,1,.35.5.93.93,0,0,1,.09-.62c.3-.36.15,0,.4,0,.46.12.12.43.56,0,.24-.25.25-.57.57-.75.21.28.37.65.73.73a2.72,2.72,0,0,0-.11-.25,13.37,13.37,0,0,0,1.88.3,1,1,0,0,0-.4-.34c.33-.12.92.09,1-.31-.24,0-.83,0-.84-.37,0-.17.49-.44.57-.64-.27.07-.54.28-.82.15.08-.28.25-.55.34-.83-.13.12-.64.82-.95.61s0-1-.22-1.34a1.58,1.58,0,0,1-.62,1.2,1.73,1.73,0,0,0-.64-.94c0,.46-.46,1.69-1,1,0,.52-.44,1.12-.88.48a.72.72,0,0,1-.15.71c-.36.23-.73.48-1.1.69s-.67.39-1,.6a2.52,2.52,0,0,1,.56-1.54,1.38,1.38,0,0,0,.39-.73.42.42,0,0,1-.19.09,3.81,3.81,0,0,1,.42-.8c.26-.28,2.28-1.63,2.4-1.9-.09,0-.28.07-.36.12a5.69,5.69,0,0,0,.47-1c-.23.12-.41.34-.67.35a2.66,2.66,0,0,0-.1-1.07c-.1.37-.14.82-.27,1.15-.59-1.06-.48,0-.75.61a4,4,0,0,0-.4-.42c-.22.27-.14,1-.06,1.49-.13.19-.27.35-.4.55s-.38.59-.56.9c-.08-.33.18-.67.12-1-.06.08-.19.17-.24.24a3.87,3.87,0,0,0,.08-.77,1.8,1.8,0,0,1-.18.25,3.27,3.27,0,0,1,.14-1.45.94.94,0,0,1-.26.31,8.37,8.37,0,0,0,.15-1.67,2.45,2.45,0,0,1-.21.76c0-.61-.23-1.18-.2-1.75a4.58,4.58,0,0,0-.26,1.73c-.12-.21-.27-.44-.52-.48a5.49,5.49,0,0,1,.19,1.4c-.25-.26-.43-.64-.7-.89a4,4,0,0,0,0,.61c-.26-.1-.39-.43-.52-.7a3.06,3.06,0,0,1-.23.76c-.32-.3-.33-1.37-.35-1.72a8.59,8.59,0,0,1-.1,1c-.29-.44-.61-1-1.15-1.17-.1.33.18.67.31,1-.41-.14-1-.49-1.35-.06a1.79,1.79,0,0,1,1,.68,2.44,2.44,0,0,0-1.14,0,5.58,5.58,0,0,1,1,.83.53.53,0,0,1-.59,0c-.08.35,1.62,1,2,1a3.16,3.16,0,0,0,.16.64l1.11,2.35-.08-.07a9.61,9.61,0,0,0-1-.74,11.27,11.27,0,0,0-1.55-.69.74.74,0,0,0-.47-.77.58.58,0,0,1,0,.18c-.19-.26-.26-.62-.47-.86a1.51,1.51,0,0,0,0,.67c-.2-.11-.95-1-.74,0-.53-.22-.87-.86-1.39-1a5.94,5.94,0,0,0,.35,1c-.25-.12-.59-.61-.87-.63s-.49.27-.29.59a2.16,2.16,0,0,0-1.13,0c.06.3.51.3.74.46-.18.14-1,.1-1,.37s.89.38,1.09.36a2.36,2.36,0,0,0-.8.64,7.88,7.88,0,0,0,1.48-.21,1.63,1.63,0,0,1-.09.19,1.32,1.32,0,0,0,.88-.32c.33.47.67.28.65-.28a4,4,0,0,1,.24.46.85.85,0,0,0,.44-.69,5.75,5.75,0,0,1,.46.64c.08-.15.18-.39.25-.52a4.55,4.55,0,0,1,.21.51.57.57,0,0,0,.22-.57,2.11,2.11,0,0,1,.25.73l-.05-.74a10,10,0,0,1,1.38.86,8.55,8.55,0,0,1,.89.81,4,4,0,0,1,.43.53.91.91,0,0,0-.11.16l-.12,0a8.36,8.36,0,0,0-1.18-.27l-.47-.06a1.38,1.38,0,0,0,.64-.23,3.69,3.69,0,0,0-1.09.21h-.25c.21-.17.49-.4.26-.63-.3.38-1.56.5-1-.15-.54.29-1.06.71-.88-.21a1.82,1.82,0,0,1-1.08.24c0-.14,0-.2,0-.28-.32.15-1.06.62-1.1,0-.38,0-.67.2-1,.24,0-.09,0-.21,0-.3-.3.54-.92.51-1.4.72a4.23,4.23,0,0,0,1.14.28c-.28.17-.72.29-.91.6a5.16,5.16,0,0,0,1.34-.19c-.1.32-.37.55-.47.87a2.31,2.31,0,0,0,1.25-.66c-.11.34-.19.7-.26,1a5.58,5.58,0,0,1,1-.84,5.47,5.47,0,0,1-.08.9,5.42,5.42,0,0,1,1.24-.91,8.31,8.31,0,0,0,0,.87c.3-.28.57-.72.92-.87a2.14,2.14,0,0,0,.08.76,2,2,0,0,1,.78-.63c.19.26.18.68.5.78a.91.91,0,0,1,.33-.67c.07.11.21.2.26.35,0-.48.37-.63.56-.15a3.58,3.58,0,0,0,.14-.65,5.2,5.2,0,0,1,.8.34,5,5,0,0,0,0,1.55,11.15,11.15,0,0,0,.29,1.65c-.17,1.83-.32,3.87-.47,6h-3.4v-4.27H899v-4.46H887V90.39h-5.37V87.17a5.73,5.73,0,1,0-11.45,0v3.22H866.8V44.88H853.52V39.2h-2V20h-1.86v-8.3h-2.15V39.2h-8.15v2.24h-11.6v5.9H821V41h-11V81.67h-.29v10l-4.77-.91.14-14.1h-9.63c-9.24-9.13-18.31-3.89-22.9,0h-8.8V87.94h-5.12V96.4h-3.42v3.48H751.3V91.63H726.83V68.45l-11.1-3.71L705.2,68.45V99.89h-3.8V93.13H690.47v2.1h-5.69V109H671.9V95.23l-13,1.64v6.44H650.2v-4.2l-9,1.77c0-5.11,0-15.13,0-15.13H643V82.29l-1.8-.07V60.28s-.54-6.91,2.32-8.25V48.2h-3V44.45l1.5-2h-1.5s1.1-3.75-1.91-4.67-3.4-6.08-3.4-6.08-.4,5.16-3.42,6.08-1.9,4.67-1.9,4.67h-1.5l1.5,2V48.2h-3V52c2.85,1.34,2.32,8.25,2.32,8.25V82.22l-1.8.07v3.46h1.75s0,2,0,5H628a7.3,7.3,0,0,0-4-6.59c-5.36-2.72-5.66-6.3-5.65-7.15,0,.85-.29,4.43-5.65,7.15A6.91,6.91,0,0,0,608.94,89V80.13l1.15-1.56h-1.15v-5l.82-.87h-.82s.68-1.5-.61-2a2.06,2.06,0,0,1-1.16-2.06h0A2.07,2.07,0,0,1,606,70.69c-1.29.5-.61,2-.61,2h-.83l.83.87v5h-1.15l1,1.5v4.62H603c.54-2.51,1.07-8.18-4.12-10.81-5.93-3-6.27-7-6.25-7.91,0,1-.33,4.9-6.26,7.91-5.19,2.63-4.66,8.3-4.13,10.81h-2.26v-4.5l1-1.62h-1.15v-5l.82-.87h-.82s.68-1.5-.61-2A2.08,2.08,0,0,1,578,68.63h0a2.08,2.08,0,0,1-1.16,2.06c-1.29.5-.61,2-.61,2h-.82l.82.87v5h-1.15l1.15,1.56V89a6.92,6.92,0,0,0-3.77-4.78c-5.36-2.72-5.65-6.3-5.64-7.15,0,.85-.29,4.43-5.65,7.15a7.26,7.26,0,0,0-4,6.59H556c0-3,0-5,0-5h1.76V82.29l-1.81-.07V60.28s-.53-6.91,2.33-8.25V48.2h-3V44.45l1.51-2h-1.51s1.11-3.75-1.9-4.67-3.41-6.08-3.41-6.08-.4,5.16-3.41,6.08-1.9,4.67-1.9,4.67h-1.51l1.51,2V48.2h-3V52c2.85,1.34,2.32,8.25,2.32,8.25V82.22l-1.81.07v3.46h1.76s.05,4.69.05,12.41l-.18.41-6.28-.47v2.42h-5.91V94.24H510.44V99.6h-5V81.17l-10.53-4.34-10.39,4.34V96.76h-3.09V88.18l-8.52-12.43-8.77,12.43v8.73h-2.63V91.63l-11.24,2.16V56.1l-19.66-2.54v49.36l-6.53-1.12V96.47h-9.87V72.09h-3.72l-1-2-7.08-6-7.85,6-1,2h-3.59V87.94h-7.45V75.56h-3.71l-1-2H362.81l-1,2h-3.61v6.9h-6.65V99.82h-8V94H325.85V86.1h-6.12L317,82.6,314,86.1h-8.16v7.14L302,94.77H290.7v7.29h-3.61V58.2h-1.72V55l-11.66,1.3v1.9h-1.64V91.63h-6.73V76.37L250.4,78.61v6a37.58,37.58,0,0,0-3.91-2.42c2.42-1.27,4.08-1.79,3.89-2.25s-2.61-.1-5.73,1.34c-3.12-1.44-5.48-1.91-5.73-1.34s1.47,1,3.89,2.25a34.84,34.84,0,0,0-10.33,8.3,45.36,45.36,0,0,0-7,12.38,40.15,40.15,0,0,0-5.9-10,31.89,31.89,0,0,0-9.44-7.57c2.22-1.16,3.74-1.63,3.56-2.06s-2.38-.08-5.23,1.23c-2.84-1.31-5-1.75-5.22-1.23s1.34.9,3.55,2.06a32,32,0,0,0-9.44,7.57c-4.7,5.72-7.84,13.67-9.06,21-1-.06-2.06-.14-3.14-.23a73.17,73.17,0,0,1-1-12.53c-1.56-2.69-2.63-8.29-2.47-13.59s-1.51-7.23-3.93-9.23-7-1.46-9.89-5.08a12.63,12.63,0,0,0-5.9-4.45C152.9,67.33,144.6,54,144.6,54c-2.71-4.86-3.14.1-4.66,1s-2.38,1.6-5.53,5.77,2.19,1.35,3.94,1.09,5.44-.93,5.44-.93c3.52,7.85,10,14.5,12.88,17.17a1.35,1.35,0,0,1,.27,2,4.9,4.9,0,0,0-.57.54c-1.33,1.49-1.5,3.9.49,9,1.79,4.53,1.62,14.78,1.33,21l-3.76-.44c-26.13-3-64.36,4.27-89.54,3.85-1.8,0-3.68-.08-5.6-.14-.07-.9-.14-1.81-.18-2.71q-.15-3.36-.06-6.72a6.88,6.88,0,0,0,0-.83A64.75,64.75,0,0,1,60.71,91.1a42.11,42.11,0,0,1,2.06-6.39A28.91,28.91,0,0,1,66,78.85a21.7,21.7,0,0,1,4.69-4.78A20.44,20.44,0,0,1,75,71.64a13.56,13.56,0,0,0,5.54,1.09c4.68,0,8.48-2,8.48-4.46a2.93,2.93,0,0,0-1-2.06c8.65-.4,15.34-3.23,15.34-6.65,0-3.7-7.82-6.7-17.47-6.7A39.09,39.09,0,0,0,76,54a2.78,2.78,0,0,0,.27-1.18c0-3.2-5.89-5.79-13.17-5.79-7,0-12.67,2.38-13.14,5.39A27.57,27.57,0,0,0,44.86,52c-6.09,0-11.22,1.83-12.69,4.32a20.29,20.29,0,0,0-5.58-.76c-6.7,0-12.14,3.06-12.14,6.82,0,3.53,4.8,6.44,10.94,6.78a4.26,4.26,0,0,0-2.12,3.34c0,3.16,5.06,5.73,11.29,5.73A21.57,21.57,0,0,0,37.83,78l.63.28a30.71,30.71,0,0,1,5.79,3.51A28.21,28.21,0,0,1,49,86.5a30.47,30.47,0,0,1,3.54,5.7,36.26,36.26,0,0,1,2.3,6.3,44.92,44.92,0,0,1,1.2,6.61v1.15q0,1,0,1.95c0,.65.06,1.3.12,2,0,0,.05,2.92,0,3.56C31.55,112.84,0,110.13,0,110.13v13.66H1366V96.91ZM63.24,70.2h.55A23,23,0,0,0,71.44,69a37.39,37.39,0,0,0-4.78,4.72A39.38,39.38,0,0,0,62.3,80.1a46.07,46.07,0,0,0-3.17,7.23c.21-1.71.45-3.41.74-5.1a60.67,60.67,0,0,1,2.48-9.78C62.62,71.69,62.92,70.94,63.24,70.2ZM53.24,72c.6,2.54,1.07,5.11,1.45,7.68.43,2.84.74,5.71,1,8.57q-.78-2.33-1.72-4.58A55.2,55.2,0,0,0,49,74.32l-.47-.69A14.57,14.57,0,0,0,53.24,72Zm2.87,26.2a36.37,36.37,0,0,0-2.61-6.41A30.45,30.45,0,0,0,49.64,86a28.41,28.41,0,0,0-5.08-4.66,30.83,30.83,0,0,0-6-3.32l-.29-.12c3.51-.62,6.23-2.1,7.19-3.94A21.28,21.28,0,0,0,48,73.72c.18.29.36.58.53.87A54.54,54.54,0,0,1,53,84a69.61,69.61,0,0,1,2.78,10c.13.64.25,1.27.36,1.91,0,.24,0,.49,0,.74,0,.59,0,1.19.05,1.78Zm-.4-18.69c-.52-2.66-1.13-5.29-1.87-7.89a5.07,5.07,0,0,0,2.08-2.66,22.6,22.6,0,0,0,6.89,1.28c-.34.68-.65,1.37-.94,2.07a59.9,59.9,0,0,0-3,9.77c-.63,2.74-1.12,5.5-1.51,8.28C56.94,86.68,56.41,83.05,55.71,79.46Zm3,15.49a48.65,48.65,0,0,1,4.49-14.37,38.22,38.22,0,0,1,4.05-6.38,35.77,35.77,0,0,1,4.94-5.13,4.88,4.88,0,0,0,2.71,2.53,20.74,20.74,0,0,0-4.36,2.26,22,22,0,0,0-5,4.68,30.17,30.17,0,0,0-3.54,5.86,43.52,43.52,0,0,0-2.35,6.44c-.41,1.47-.75,3-1,4.44C58.68,95.17,58.7,95.06,58.72,95Zm101.63,15.87c.49-4.32,1.32-7.72,1-12.6-.47-6.63,1.94-7.13,4.91-7.1s4,1.58,5.05,7.64c.66,4-.91,9.68-2.06,13.11Zm10.81,1.28a35.57,35.57,0,0,1,5-9.94c-1.89-5.23-.31-8-.31-8,3.26,2.89,4.29,8.8,4.29,8.8,2.09,2.54,3.28,7.37,3.87,10.56C180.36,113.17,176.27,112.7,171.16,112.1Zm24.23,2a38.52,38.52,0,0,1,5-19.73,23.42,23.42,0,0,1,8-8.11,23.44,23.44,0,0,1,8,8.11,37.48,37.48,0,0,1,5,17.29c-7.11.82-14,2.16-20.2,2.36C199.17,114.06,197.25,114.08,195.39,114.07Zm52.67-13.75v8.53h-8.43v2.79a50,50,0,0,0-9.21-.64,40.89,40.89,0,0,1,5.44-18.86,25.49,25.49,0,0,1,8.79-8.88A25.74,25.74,0,0,1,250.4,88v12.29ZM987.64,96c.64.48,1.46,1.06,1.63,1.24a2.76,2.76,0,0,1,.41.8.55.55,0,0,1-.19-.09,1.39,1.39,0,0,0,.4.73,2.57,2.57,0,0,1,.57,1.54l-1-.6c-.38-.21-.75-.46-1.1-.69a.72.72,0,0,1-.16-.71c-.3.43-.58.29-.74,0Q987.55,97.05,987.64,96Zm-.28,3.53h0c.26-.06.11-.4.41,0a.93.93,0,0,1,.09.62,5.5,5.5,0,0,1,.34-.5c.23.11.45.23.66.35.4.22.78.46,1.16.69l.1.08a2.2,2.2,0,0,0-.12.19l-.36,0c-.44.08-.88.16-1.32.26a8.36,8.36,0,0,0-1.12.29C987.26,100.82,987.31,100.16,987.36,99.5Zm-1.14-9.2,0,0c0,.14,0,.26,0,.4h-.28Zm-.57.12a1.23,1.23,0,0,1,0-.38l.39.18A.83.83,0,0,1,985.65,90.42Zm.12-.92.06-.42a1.45,1.45,0,0,1-.35.35l-.68-.13c-.21,0-.41,0-.62-.08a1.85,1.85,0,0,0,.85-.3,5,5,0,0,0-1.44.27h-.34c.29-.22.66-.53.36-.84-.38.48-1.82.63-1.45,0l.22.35a1.27,1.27,0,0,1,.11-.82c.4-.46.21,0,.53.05.61.16.15.57.73,0a3.06,3.06,0,0,0,.41-.65c.26.17.52.35.76.53a9.65,9.65,0,0,1,1.16,1,5.85,5.85,0,0,1,.58.71.74.74,0,0,0-.15.21,1,1,0,0,0-.16-.06Zm-4.66-1c.26-.15.53-.3.82-.44a2.7,2.7,0,0,1,.18.25C981.63,88.53,981.21,88.8,981.11,88.45Zm5.14-.76.37.77-.11-.1c-.36-.28-.76-.57-1.15-.83A4.07,4.07,0,0,1,986.25,87.69ZM985,84.53l.06.32c-.06-.11-.14-.22-.21-.33Zm-.25,2.65-.34-.18a.49.49,0,0,1,.15-.1C984.58,87,984.63,87.08,984.7,87.18Zm-1.78-4.09a1.59,1.59,0,0,1,.13.13.58.58,0,0,1-.44.1A3.55,3.55,0,0,0,982.92,83.09Zm-2.37,1.8c.18-.2,1.06-.83,1.85-1.41a5.59,5.59,0,0,0,2,1c-.11.68-.67,1.9-1.31,1.1A1.33,1.33,0,0,1,983,86a.77.77,0,0,0-.53-.52c0,.1,0,.15.06.24-.25-.36-.35-.82-.62-1.13a2,2,0,0,0,0,.87c-.27-.12-1.25-1.37-1-.06a2,2,0,0,1-.53-.34Zm-1.22,2.51.26-.17c.43.61.88.35.85-.37a4.14,4.14,0,0,1,.33.6,1.15,1.15,0,0,0,.57-.9,2.52,2.52,0,0,1,.41.56c-.47.3-1,.62-1.44.91l-.3.17h-.31c0-.19,0-.26,0-.38-.15.08-.39.21-.61.3A3.07,3.07,0,0,1,979.33,87.4ZM975.71,89a6.84,6.84,0,0,0,.81.14q-.24.14-.54.27l-.41-.08c-.21,0-.41,0-.61-.08A1.9,1.9,0,0,0,975.71,89Zm-9,0,.61.1c-.18.11-.4.19-.61.31-.21-.12-.44-.2-.62-.31Zm4.89,25.25c-1.55-.07-3.53-.14-5.79-.22.2-3.36.42-6.56.66-9.3.14-.46.21-.92.32-1.4a7.9,7.9,0,0,0,.59-1.94h.2c.44,0,.88,0,1.32.09a11.31,11.31,0,0,1,1.3.19l.18,0-.06.05a8.33,8.33,0,0,1,.12,1.93c.17-.3.3-.74.62-1,.07.16.24.23.34.35.69-.12,1.41.14,2.09.06a2,2,0,0,1-.92-.66,1.81,1.81,0,0,0,.81-.94,6.64,6.64,0,0,1-1.27.06,1.9,1.9,0,0,0,.34-.62,1,1,0,0,1-.57.39,7.17,7.17,0,0,1,.15-1c-.19.31-.63.47-.93.67,0-.11,0-.26,0-.35a2.66,2.66,0,0,1-.43.77l-.15.15a2.34,2.34,0,0,1-.24-.09,9.81,9.81,0,0,0-1.29-.34c-.44-.1-.88-.18-1.32-.26l-.37,0a.69.69,0,0,0-.12-.19l.11-.08c.38-.23.76-.47,1.16-.69l.65-.35a4.1,4.1,0,0,1,.35.5.93.93,0,0,1,.09-.62c.3-.36.15,0,.4,0,.46.12.11.43.55,0,.25-.25.26-.57.58-.75.2.28.35.65.73.73,0-.08-.07-.17-.11-.25a12.92,12.92,0,0,0,1.88.3,1.12,1.12,0,0,0-.41-.34c.34-.12.93.09,1-.31-.25,0-.84,0-.85-.37,0-.17.5-.44.58-.64-.27.07-.54.28-.83.15.08-.28.25-.55.35-.83-.14.12-.65.82-1,.61s0-1-.22-1.34a1.54,1.54,0,0,1-.64,1.2,1.61,1.61,0,0,0-.62-.94c0,.46-.47,1.69-1,1,0,.52-.43,1.12-.88.48a.72.72,0,0,1-.15.71c-.35.23-.73.48-1.09.69s-.67.39-1,.6a2.57,2.57,0,0,1,.57-1.54,1.38,1.38,0,0,0,.39-.73.42.42,0,0,1-.19.09,3.36,3.36,0,0,1,.41-.8c.27-.28,2.29-1.63,2.41-1.9-.1,0-.28.07-.37.12a5,5,0,0,0,.47-1c-.22.12-.4.34-.66.35a2.85,2.85,0,0,0-.11-1.07,8.05,8.05,0,0,1-.27,1.15c-.59-1.06-.47,0-.74.61a5.33,5.33,0,0,0-.4-.42c-.22.27-.14,1-.06,1.49-.14.19-.27.35-.4.55a10.4,10.4,0,0,0-.56.9c-.08-.33.16-.67.12-1-.07.08-.19.17-.24.24a4.78,4.78,0,0,0,.08-.77c-.06.1-.14.18-.18.25a3.27,3.27,0,0,1,.14-1.45.94.94,0,0,1-.26.31,9.18,9.18,0,0,0,.15-1.67,3.16,3.16,0,0,1-.21.76c0-.61-.24-1.18-.2-1.75a4.58,4.58,0,0,0-.27,1.73c-.12-.21-.27-.44-.52-.48a5.5,5.5,0,0,1,.2,1.4c-.25-.26-.44-.64-.72-.89a5.86,5.86,0,0,0,0,.61c-.25-.1-.39-.43-.52-.7a2.68,2.68,0,0,1-.22.76c-.32-.3-.34-1.37-.36-1.72a6.91,6.91,0,0,1-.1,1c-.28-.44-.6-1-1.14-1.17-.1.33.18.67.3,1-.4-.14-1-.49-1.34-.06a1.79,1.79,0,0,1,1,.68,2.44,2.44,0,0,0-1.14,0,6,6,0,0,1,1,.83.53.53,0,0,1-.59,0c-.09.35,1.61,1,2,1a3.16,3.16,0,0,0,.16.64l1.11,2.35a.28.28,0,0,1-.09-.07,9.49,9.49,0,0,0-1-.74,10.87,10.87,0,0,0-1.56-.69.73.73,0,0,0-.47-.77,1.21,1.21,0,0,0,0,.18A9,9,0,0,0,962,97a1.88,1.88,0,0,0,0,.67c-.2-.11-.94-1-.73,0-.53-.22-.87-.86-1.4-1a5.18,5.18,0,0,0,.36,1c-.25-.12-.6-.61-.87-.63s-.49.27-.3.59a2.13,2.13,0,0,0-1.12,0c0,.3.51.3.73.46-.18.14-1,.1-1,.37s.88.38,1.08.36a2.57,2.57,0,0,0-.8.64,8,8,0,0,0,1.49-.21l-.09.19a1.34,1.34,0,0,0,.88-.32c.33.47.67.28.64-.28a2.87,2.87,0,0,1,.25.46.82.82,0,0,0,.43-.69,7.52,7.52,0,0,1,.47.64c.08-.15.18-.39.25-.52.05.16.17.34.21.51a.61.61,0,0,0,.22-.57,2.09,2.09,0,0,1,.24.73l0-.74a11.41,11.41,0,0,1,1.38.86,8.45,8.45,0,0,1,.88.81,2.78,2.78,0,0,1,.42.53l-.1.16-.12,0a8.23,8.23,0,0,0-1.17-.27c-.17,0-.32,0-.47-.06a1.38,1.38,0,0,0,.64-.23,3.63,3.63,0,0,0-1.09.21H963c.21-.17.5-.4.27-.63-.3.38-1.56.5-1-.15-.54.29-1.06.71-.88-.21a1.85,1.85,0,0,1-1.09.24c0-.14,0-.2,0-.28-.31.15-1.06.62-1.09,0-.39,0-.67.2-1,.24a1.51,1.51,0,0,1,0-.3c-.31.54-.92.51-1.4.72a4.05,4.05,0,0,0,1.14.28c-.28.17-.73.29-.92.6a4.91,4.91,0,0,0,1.33-.19c-.09.32-.35.55-.45.87a2.29,2.29,0,0,0,1.24-.66,8.4,8.4,0,0,0-.25,1,5.24,5.24,0,0,1,1-.84,4.58,4.58,0,0,1-.09.9,5.47,5.47,0,0,1,1.25-.91,6.26,6.26,0,0,0,0,.87c.29-.28.57-.72.92-.87a2.14,2.14,0,0,0,.08.76,2,2,0,0,1,.77-.63c.19.26.18.68.51.78a.9.9,0,0,1,.32-.67,1.33,1.33,0,0,1,.26.35c0-.48.38-.63.56-.15a2.44,2.44,0,0,0,.14-.65,5.31,5.31,0,0,1,.81.34,4.74,4.74,0,0,0,0,1.55,10,10,0,0,0,.29,1.65c-.26,2.78-.48,6-.68,9.48l-7.75-.24c-.36-6.91-.78-13.77-1.27-19.23a13.14,13.14,0,0,0,.38-2.17,6.46,6.46,0,0,0,0-2.06,6.47,6.47,0,0,1,1.05-.44,3.8,3.8,0,0,0,.19.86c.24-.64.78-.44.74.19.06-.19.24-.31.34-.46a1.22,1.22,0,0,1,.42.89c.43-.14.43-.7.67-1a2.77,2.77,0,0,1,1,.84,3.07,3.07,0,0,0,.09-1c.47.21.84.78,1.22,1.15,0-.4-.06-.77,0-1.15a7,7,0,0,1,1.63,1.21,8.24,8.24,0,0,1-.11-1.2,7.26,7.26,0,0,1,1.29,1.12,10.19,10.19,0,0,0-.33-1.35,3.16,3.16,0,0,0,1.63.88c-.13-.42-.47-.73-.6-1.15a5.7,5.7,0,0,0,.65.14l-.1.11a4.26,4.26,0,0,0,.61,0,4.22,4.22,0,0,0,.6,0,.87.87,0,0,1-.09-.11,6,6,0,0,0,.64-.14c-.12.42-.47.73-.6,1.15a3.08,3.08,0,0,0,1.63-.88,10.11,10.11,0,0,0-.32,1.35,6.92,6.92,0,0,1,1.29-1.12,10,10,0,0,1-.12,1.2,7.31,7.31,0,0,1,1.64-1.21,8.7,8.7,0,0,0-.05,1.15c.38-.37.75-.94,1.21-1.15a3.07,3.07,0,0,0,.1,1,2.78,2.78,0,0,1,1-.84c.26.34.25.9.68,1a1.18,1.18,0,0,1,.42-.89c.1.15.28.27.35.46-.05-.63.49-.83.73-.19a3.8,3.8,0,0,0,.19-.86,5.44,5.44,0,0,1,.79.32,2.56,2.56,0,0,0-.33.61,1.68,1.68,0,0,0,.55-.13,8,8,0,0,0,.06,1.7,12.15,12.15,0,0,0,.37,2.17c-.51,5.63-.94,12.73-1.31,19.85C974.44,114.36,972.89,114.32,971.57,114.26Zm13.26-16.48c-.31.21-.82-.49-1-.61.09.28.27.55.34.83-.29.13-.55-.08-.83-.15.09.2.58.47.58.64,0,.34-.6.38-.84.37.1.4.7.19,1,.31a1.12,1.12,0,0,0-.41.34,12.71,12.71,0,0,0,1.88-.3l-.1.25c.36-.08.52-.45.72-.73,0,0,0,0,.06,0-.06.74-.11,1.49-.16,2.26a2.48,2.48,0,0,1-.9-.65,5.11,5.11,0,0,1,.14,1,1,1,0,0,1-.55-.39,1.7,1.7,0,0,0,.33.62,6.64,6.64,0,0,1-1.27-.06,1.83,1.83,0,0,0,.82.94,2,2,0,0,1-.93.66c.68.08,1.4-.18,2.08-.06L986,103c-.24,3.68-.46,7.6-.66,11.53-2.92,0-5.68,0-8.12-.1.35-7,.78-14.05,1.27-19.64a16.35,16.35,0,0,0,.42-1.83,19.08,19.08,0,0,0,.77-2.24l.39-.29a4,4,0,0,1,.49,0,3.32,3.32,0,0,0,0,.84c.24-.24.48-.55.73-.8l.45,0h0a1.86,1.86,0,0,0,.09.62,2.18,2.18,0,0,1,.55-.54c.22,0,.44.07.66.1.1.27.2.55.48.64a2.29,2.29,0,0,1,.07-.36,12.88,12.88,0,0,1,.13,2.46c.23-.39.4-1,.82-1.25.1.21.31.3.46.46a4.43,4.43,0,0,1,1.31,0,13,13,0,0,0,.34,1.86c-.08.86-.15,1.78-.23,2.72a1.88,1.88,0,0,1-.13-.57,1.67,1.67,0,0,0-.63.94,1.52,1.52,0,0,1-.62-1.2C984.81,96.73,985.06,97.64,984.83,97.78Zm1.62,16.75c.23-4.41.48-8.81.75-12.86.4-.07.79-.14,1.19-.17s.87-.08,1.31-.09h.2a7.92,7.92,0,0,0,.6,1.94c.12.48.18.94.32,1.4.25,2.88.48,6.26.68,9.81Zm36.07-24,.12.55c-.27-.18-.58-.29-.82-.43C1022.06,90.6,1022.29,90.56,1022.52,90.51Zm-1-1.19a2.8,2.8,0,0,1,0,.4c-.47-.06-.86-.38-1.36-.32,0,.75-1,.14-1.43-.06,0,.1-.08.19,0,.38a3.28,3.28,0,0,1-.94-.12,5.72,5.72,0,0,1,.07-1l.13-.22c0,.72.42,1,.85.36a1.87,1.87,0,0,0,1.15.42,1.34,1.34,0,0,0-.12-.24,11.54,11.54,0,0,0,2,.26,3.54,3.54,0,0,0-1-.84,3,3,0,0,0,1-.14,8.74,8.74,0,0,0,.61,1.76A1.44,1.44,0,0,1,1021.49,89.32Zm-2-3.87.86.47c.53.28,1,.6,1.53.91l.14.09a2.47,2.47,0,0,0-.16.26l-.48.06-.5.1c.31-.16.81-.2.87-.56a2.85,2.85,0,0,0-1.48,0c.26-.42.09-.79-.38-.78s-.82.68-1.15.84c.09-.23.2-.47.29-.71A5.6,5.6,0,0,1,1019.5,85.45Zm-6.32,1.43a4.3,4.3,0,0,0,.21-.84,5.41,5.41,0,0,0,2.55-1.05l.16,0a2.33,2.33,0,0,0-.14.33c.48-.12.68-.6,1-1,.42.24.42.66.75,1,.58.59.12.17.73,0,.32-.08.13-.51.53,0a.67.67,0,0,1,.11.32c-.59.3-1,1-1.66,1.29.28-1.31-.7-.06-1,.06a2,2,0,0,0,0-.88,3.68,3.68,0,0,0-.43.81,1.25,1.25,0,0,1-.38-.38,5,5,0,0,0,.08.54.87.87,0,0,0-.39.54,1.45,1.45,0,0,1-.24-.26,1.32,1.32,0,0,0,.19.46,1.34,1.34,0,0,0,0,.2,3.47,3.47,0,0,0-.41.16,3.53,3.53,0,0,1-1-.07,1.75,1.75,0,0,0,.19.42c-.27.13-.54.26-.81.41a10.65,10.65,0,0,0-1.35,1l-.11.1Zm4,3.14c-.1.2-.34.11-.64-.06a.72.72,0,0,0,.29-.31A1.54,1.54,0,0,1,1017.22,90Zm-1,.08c-.09.24-.67.22-1.11,0A4.59,4.59,0,0,1,1016.23,90.1Zm-4,.22a11.57,11.57,0,0,1,1.16-1c.25-.19.51-.36.78-.53a4.85,4.85,0,0,0,.7.6,2.93,2.93,0,0,1-1.22.86,4.51,4.51,0,0,0,1,0,1.32,1.32,0,0,0,.44.51h-.33a5,5,0,0,0-1.44-.26,1.85,1.85,0,0,0,.84.3l-.61.08a11.11,11.11,0,0,0-1.55.35.76.76,0,0,1-.16.06,1,1,0,0,0-.14-.2A4.34,4.34,0,0,1,1012.25,90.32Zm-.9,16.22a1.05,1.05,0,0,1-.18.25l-.16.16a1.23,1.23,0,0,0-.23-.09,8.83,8.83,0,0,0-1.29-.35c-.44-.1-.88-.17-1.32-.26l-.37,0a.76.76,0,0,0-.12-.2s.07,0,.11-.08c.38-.23.76-.47,1.16-.69.21-.12.43-.24.66-.35a4.39,4.39,0,0,1,.34.5c0-.17,0-.49.08-.62.31-.35.16,0,.41,0,.46.13.11.44.55,0a1.4,1.4,0,0,0,.23-.35C1011.27,105.14,1011.31,105.83,1011.35,106.54Zm-3.41-2.58a1.41,1.41,0,0,0,.39-.73.39.39,0,0,1-.19.1,3.25,3.25,0,0,1,.41-.81c.27-.28,2.28-1.62,2.4-1.9-.1,0-.27.08-.36.12.1-.21.22-.39.32-.59,0,.15,0,.32,0,.47.06.8.12,1.62.18,2.44-.18.2-.4.25-.62,0,0,.52-.44,1.12-.88.48a.72.72,0,0,1-.16.71c-.35.23-.72.48-1.1.69s-.66.4-1,.6A2.57,2.57,0,0,1,1007.94,104Zm-1.28,10.53c.11-1.56.22-3.08.34-4.44.15-.46.21-.91.32-1.4a7,7,0,0,0,.6-1.94l.2,0c.45,0,.87,0,1.32.08s.87.11,1.29.19l.18,0-.06,0A7.39,7.39,0,0,1,1011,109a4.6,4.6,0,0,1,.49-.81c.12,2,.23,4.13.34,6.23Zm6.24,0c-.11-2-.21-4-.33-6a7.19,7.19,0,0,0,1.46.08,2,2,0,0,1-.92-.64,1.89,1.89,0,0,0,.81-1,6,6,0,0,1-1.27.06,1.62,1.62,0,0,0,.33-.62,1,1,0,0,1-.51.38c0-.1,0-.21,0-.31s.1-.47.12-.7a.9.9,0,0,1-.16.18c0-.45,0-.9-.08-1.34a8.55,8.55,0,0,0,1.73.28,1,1,0,0,0-.4-.34c.33-.12.93.1,1-.32-.25,0-.84,0-.85-.36,0-.17.5-.43.58-.63-.28.06-.54.27-.83.15.07-.28.25-.55.35-.83-.14.12-.65.81-1,.61s0-1.06-.22-1.34a1.62,1.62,0,0,1-.55,1.15c-.17-2.43-.35-4.75-.54-6.86a11.75,11.75,0,0,0,.37-2.16,5.87,5.87,0,0,0,0-2,6,6,0,0,1,1.05-.45,5.3,5.3,0,0,0,.19.86c.25-.63.79-.44.74.2.07-.2.25-.32.35-.47a1.25,1.25,0,0,1,.43.9c.42-.14.41-.7.66-1a2.63,2.63,0,0,1,1,.83,2.81,2.81,0,0,0,.1-1c.46.22.83.79,1.22,1.16,0-.4-.06-.77-.05-1.16a7.31,7.31,0,0,1,1.63,1.22,8.41,8.41,0,0,1-.12-1.2,6.93,6.93,0,0,1,1.3,1.12,12.19,12.19,0,0,0-.33-1.36,3.06,3.06,0,0,0,1.64.89c-.14-.43-.48-.73-.6-1.16a6.38,6.38,0,0,0,1.42.24c.06.28.12.55.2.83.55,6.24,1,14.24,1.4,22.08Zm17.58-.18-5.07,0c-.25-5.18-.53-10.43-.86-15.21a5.19,5.19,0,0,1,.7.07,1,1,0,0,0-.41.34,13.15,13.15,0,0,0,1.88-.3c0,.08-.07.17-.11.25.37-.08.52-.45.73-.73.32.18.33.5.58.75.44.45.1.14.55,0,.25-.06.11-.4.41,0,.12.13.1.45.09.62a4,4,0,0,1,.34-.5c.22.11.45.23.65.35.4.22.78.46,1.16.69l.11.08a2.2,2.2,0,0,0-.12.19l-.37,0c-.44.08-.88.16-1.32.26a9.67,9.67,0,0,0-1.28.34c-.1,0-.16.07-.25.09l-.15-.15a2.66,2.66,0,0,1-.43-.77c0,.09,0,.24,0,.35-.31-.2-.74-.36-.93-.67a6,6,0,0,1,.14,1,.92.92,0,0,1-.55-.39,1.67,1.67,0,0,0,.32.62,6.72,6.72,0,0,1-1.27-.06,1.87,1.87,0,0,0,.82.94,2,2,0,0,1-.92.66c.67.08,1.4-.18,2.08-.06.11-.12.28-.19.35-.35.32.21.45.65.63,1a9,9,0,0,1,.11-1.93l-.06-.05.19,0a10.83,10.83,0,0,1,1.29-.19c.44,0,.88-.08,1.32-.09h.2a8.35,8.35,0,0,0,.59,1.94c.12.48.18.94.32,1.4.24,2.79.47,6.06.67,9.49Zm51.19-23.52a2,2,0,0,0,.91.38c0,.2,0,.41,0,.62a1.91,1.91,0,0,1-.57-.19,1,1,0,0,0-.12-.36,1.29,1.29,0,0,1-.21.19.15.15,0,0,0-.09,0,.4.4,0,0,1,0,.18s-.06,0-.08.08a3.19,3.19,0,0,1-.16-.55A.72.72,0,0,0,1081.67,90.74Zm.89,3.53V95.8l-.18-.11c-.37-.22-.74-.46-1.11-.69a.73.73,0,0,1-.14-.71.56.56,0,0,1-.39.27c0-.31-.07-.59,0-.89a7.26,7.26,0,0,1,1.63,1.21,10,10,0,0,1-.13-1.2l.34.26a.11.11,0,0,1,0,.06v.09a.61.61,0,0,1-.14-.07C1082.43,94.11,1082.52,94.18,1082.56,94.27Zm-1.74-3.89a1,1,0,0,0,0,.39.82.82,0,0,0-.14.23,1.6,1.6,0,0,1-.1-.31Zm-5.65,2a8.89,8.89,0,0,1,1.16-1.06,13.51,13.51,0,0,1,1.82-1.13l-.06,1a2.59,2.59,0,0,1,.32-1,.77.77,0,0,0,.29.72c0-.22.22-.44.28-.66.09.17.23.5.33.7a5.88,5.88,0,0,1,.62-.84,1.17,1.17,0,0,0,.42.8s0,0,0,.05c-.26,0-.44-.23-.66-.35a5,5,0,0,0,.46.93v0c-.09,0-.26-.07-.36-.12a2.28,2.28,0,0,0,.38.36c0,.7-.58.23-1.2-.1.74.84-.92.71-1.32.19-.28.28,0,.56.28.77a.14.14,0,0,0,0,.07h-.24a5.09,5.09,0,0,0-1.44-.27,1.74,1.74,0,0,0,.84.3l-.61.08a12,12,0,0,0-1.55.35l-.17.07a.64.64,0,0,0-.14-.21A4.38,4.38,0,0,1,1075.17,92.33ZM1080,94c-.17,0-.34-.09-.47-.3v0A1.61,1.61,0,0,1,1080,94Zm-3,.14a3.63,3.63,0,0,1-.54-.15A.31.31,0,0,1,1076.93,94.14Zm-1.44,16.42c-.27-4.52-.57-8.82-.89-12.5a15.37,15.37,0,0,0,.38-2.17,6.71,6.71,0,0,0,0-2,7.54,7.54,0,0,1,1-.45,4.27,4.27,0,0,0,.19.86.64.64,0,0,1,.14-.23c.13.19.54.42.54.57,0,.34-.6.39-.85.36.12.42.7.2,1,.32a.94.94,0,0,0-.4.34,14.55,14.55,0,0,0,1.87-.29l-.1.25c.37-.1.52-.46.72-.74.33.18.33.5.58.75.44.45.09.13.55,0,.25-.06.1-.38.41,0a1,1,0,0,1,.09.6,3.91,3.91,0,0,1,.34-.49l.66.35c.26.14.5.3.75.46v.56c-.44.08-.87.15-1.29.24a9.61,9.61,0,0,0-1.3.36l-.23.08-.16-.16a2.49,2.49,0,0,1-.43-.76c0,.09,0,.24,0,.35a2.64,2.64,0,0,1-.92-.67,7.11,7.11,0,0,1,.13,1,1,1,0,0,1-.55-.4,1.74,1.74,0,0,0,.33.63,7.58,7.58,0,0,1-1.27,0,1.86,1.86,0,0,0,.82.94,2.08,2.08,0,0,1-.93.65c.69.09,1.41-.18,2.08-.06.12-.12.28-.19.35-.35a2.68,2.68,0,0,1,.63.95,8.37,8.37,0,0,1,.11-1.93l-.05,0,.17,0a9.47,9.47,0,0,1,1.3-.19c.42,0,.83-.07,1.25-.08,0,4.24,0,8.65.11,13Zm8.63-20.24h0l0,0Zm0,1.3v-.49l.36,0C1084.36,91.32,1084.24,91.48,1084.12,91.62Z"/></g></g></svg>