<svg width="396" height="119" viewBox="0 0 396 119" fill="none" xmlns="http://www.w3.org/2000/svg">
<path d="M286.9 58.4999C288.43 60.4999 289.99 59.5899 291.39 58.7799C291.504 58.4501 291.541 58.0988 291.5 57.7524C291.458 57.406 291.339 57.0735 291.15 56.7799C289.22 55.5799 288.07 56.8999 286.9 58.4699V58.4999ZM312.62 35.2399C312.282 35.639 312.042 36.1116 311.92 36.6199C311.557 39.1472 311.374 41.6968 311.37 44.2499C311.45 46.8499 312.37 49.3199 314.89 50.5799C316.4 51.3399 320.11 49.4599 321.61 47.2599C321.819 46.9279 321.948 46.5516 321.987 46.161C322.025 45.7703 321.971 45.3762 321.83 45.0099C320.81 43.8126 320.04 42.4235 319.564 40.9244C319.089 39.4253 318.917 37.8462 319.06 36.2799C319.14 34.6699 318.06 34.4799 316.83 34.6599L312.62 35.2399V35.2399ZM87.8401 15.6299L87.2501 15.5099C87.3285 14.1304 87.3118 12.7471 87.2001 11.3699C87.1324 10.1872 86.7491 9.04429 86.0901 8.05993C84.9601 6.70993 83.5201 4.84993 82.0901 4.69993C69.7101 3.39993 62.2801 11.6399 58.3901 21.1199C56.7901 24.9999 57.9601 28.7699 59.8801 32.3499C62.4701 37.1699 65.8801 41.1599 71.1501 43.0299C73.6201 43.8999 75.9201 43.8499 78.1501 41.6299C81.2901 38.4799 83.7801 35.1499 84.6801 30.7199C85.6801 25.7199 86.8201 20.6599 87.9001 15.6299H87.8401ZM281.52 70.0699C279.84 71.0507 278.224 72.1362 276.68 73.3199C271.13 78.2599 265.48 83.1199 260.22 88.3199C257.294 91.1249 254.855 94.396 253 97.9999C249.21 105.82 253.84 113 261.56 114.33C267.23 115.28 272.97 114.71 278.16 111.26C284.21 107.26 288.33 98.8799 286.72 91.4499C285.91 87.7399 285.78 83.8799 284.9 80.1899C284.1 76.8199 282.71 73.5799 281.51 70.0899L281.52 70.0699ZM309.79 52.3699C307.68 52.4399 307.79 57.3699 304.09 60.1799C302.887 61.3328 301.296 61.9929 299.63 62.0299C296.47 62.2399 293.71 62.8599 291.35 65.2099C290.04 66.5199 288.16 67.2099 286.66 68.3699C286.371 68.596 286.138 68.8863 285.98 69.2178C285.822 69.5492 285.743 69.9128 285.75 70.2799C286.95 74.2799 288.45 78.1999 289.6 82.2099C291.403 88.1025 291.747 94.3452 290.6 100.4C289.5 105.84 286.27 109.98 281.79 113.29C275.95 117.59 269.3 119.53 262.38 118.42C257.76 117.68 252.77 115.9 250.38 110.97C249.04 108.2 247.59 105.51 247.59 102.14C247.592 99.6628 248.495 97.2709 250.13 95.4099C256.18 88.4099 262.38 81.5099 268.94 74.9999C272.06 71.8999 276.13 69.7599 279.94 67.0899C276.8 61.6199 272.59 57.7899 266.56 55.9399C259.177 53.7543 251.546 52.5177 243.85 52.2599C238.14 51.9899 232.44 51.3299 226.73 51.2599C195.03 50.9999 163.33 51.0099 131.64 50.6099C122.46 50.4999 113.3 49.1499 104.11 48.7099C98.37 48.4299 92.59 48.8199 86.83 48.8599C84.91 48.8599 82.83 49.1099 81.08 48.5499C76.81 47.1999 74.1401 50.0999 70.9601 51.7999C67.1201 53.8599 63.3601 56.2499 58.8101 56.3899C55.8101 56.4799 52.6501 56.8799 49.7501 56.2699C47.0601 55.7099 44.6101 53.9999 42.0701 52.7599C41.2901 52.3799 40.57 51.8899 39.55 51.2999C38.65 54.9399 38.03 58.2999 34.55 59.7999C31.2 61.1999 28.1601 59.8499 24.9501 58.3499C24.8172 62.3166 23.1628 66.08 20.3301 68.8599C19.5694 69.5922 18.6602 70.1525 17.6642 70.5028C16.6682 70.8532 15.6085 70.9854 14.5569 70.8906C13.5053 70.7958 12.4863 70.4761 11.569 69.9532C10.6517 69.4303 9.85748 68.7165 9.24007 67.8599C6.08007 63.6199 4.84006 58.7699 4.03006 53.6599C3.23006 48.7199 1.91006 43.8599 1.12006 38.9099C0.75603 35.8668 0.572388 32.8048 0.570068 29.7399C0.570068 29.4799 0.97006 29.2199 1.64006 28.4099C2.22683 29.403 2.68072 30.4687 2.99007 31.5799C3.77007 37.5799 3.87006 43.7999 5.28006 49.6799C6.44006 54.5299 6.95006 59.8499 10.2801 63.9499C11.4992 65.5243 13.067 66.7942 14.8601 67.6599C16.7501 68.4699 19.1801 66.1199 20.5501 63.3299C23.0501 58.2699 22.3801 53.3999 20.2901 48.4399C18.8847 45.0457 18.2659 41.3774 18.4801 37.7099C18.5501 36.3199 17.9501 34.8999 17.7301 33.4799C17.475 32.5788 17.4305 31.631 17.6001 30.7099C17.7775 30.3128 18.0353 29.9568 18.3571 29.6642C18.6789 29.3716 19.0579 29.1488 19.4701 29.0099C19.8501 28.8899 20.9201 29.7799 21.0801 30.3799C21.7401 32.8899 22.2001 35.4599 22.6701 38.0199C23.6701 43.7899 23.8601 49.8799 27.8801 54.6699C28.8743 55.9386 30.296 56.8023 31.8801 57.0999C33.5901 57.1999 36.1201 53.7099 36.1501 51.9199C36.2001 48.0099 36.1501 44.1099 36.1501 40.1999C36.1501 38.8399 35.7001 36.8699 37.6901 36.7799C39.6801 36.6899 40.1301 38.2899 40.3201 40.1599C41.3201 50.2699 51.01 56.4899 60.11 52.6899C63.35 51.3399 66.5301 49.8599 69.7001 48.3599C71.3001 47.5999 71.2801 46.4999 69.6001 46.0099C63.2701 44.1599 59.36 39.4999 56.2701 34.1699C52.4901 27.6499 52.0801 21.5999 56.7401 14.7999C60.0201 9.99994 63.54 5.14994 69.33 3.23994C74.46 1.55994 79.54 -1.25007 85.33 1.61993C89.57 3.71993 90.9301 7.45993 91.4001 11.4799C92.1701 17.9899 90.9401 24.3999 88.8101 30.5399C87.4882 33.991 85.9622 37.3602 84.2401 40.6299C83.6765 41.4656 83.0039 42.2223 82.2401 42.8799C81.8001 43.3799 81.3801 43.8799 80.4701 44.9699C82.1601 44.9699 83.0701 44.9699 83.9701 44.9699C93.0801 45.1399 102.26 44.6099 111.28 45.6199C137.5 48.5399 163.78 47.2099 190.04 47.5299C192.04 47.5299 194.11 47.0199 196.14 47.0699C206.68 47.3499 217.22 47.7199 227.76 48.0699C231 48.1799 234.24 48.5099 237.49 48.5599C246.544 48.6538 255.555 49.8084 264.34 51.9999C270.34 53.5099 275.75 55.6699 279.87 60.4299C280.581 61.2689 281.226 62.1615 281.8 63.0999C283.01 65.0999 284.27 65.2899 286.74 63.6399C285.929 63.2234 285.176 62.7023 284.5 62.0899C283.5 60.9099 281.85 59.3699 282.08 58.3299C282.45 56.5599 283.08 54.0899 285.63 53.8699C288.112 53.5398 290.628 53.5398 293.11 53.8699C294.3 54.0899 295.59 55.5999 296.18 56.8699C297.18 59.0499 299.68 59.9699 301.42 58.2499C305.74 53.9599 307.31 48.7199 306.56 42.6999C306.26 40.3199 306.14 37.9299 305.92 35.2599C302.21 35.2599 298.37 35.2599 294.54 35.2599C293.54 35.2599 292.54 35.5699 291.54 35.6299C288.47 35.8299 285.4 36.1199 282.33 36.0999C280.744 36.0608 279.18 35.7214 277.72 35.0999C276.12 34.4199 276.22 33.2799 277.79 32.5799C278.645 32.2241 279.564 32.0504 280.49 32.0699C288.33 32.0299 296.177 32.0299 304.03 32.0699C306.13 32.0699 307.24 31.3399 307.81 29.1699C308.21 27.6599 309.45 26.3699 310.32 24.9799L311.53 25.2399C311.949 26.3304 312.208 27.4755 312.3 28.6399C312.2 30.2799 312.97 31.3199 314.3 31.4299C316.92 31.6499 319.75 32.3399 321.92 30.0099C323.32 28.5099 324.55 28.5899 326.12 29.9099C327.233 30.6128 328.438 31.158 329.7 31.5299C329.786 31.5449 329.874 31.5449 329.96 31.5299C337.81 31.6999 345.67 32.1499 353.52 31.9699C362.65 31.7699 371.76 30.9699 380.88 30.5499C382.054 30.6754 383.202 30.9719 384.29 31.4299C383.964 32.2084 383.453 32.8951 382.8 33.4299C382 34.0417 381.043 34.416 380.04 34.5099C374.45 35.2099 333.04 34.5899 330.85 34.5899C330.77 34.5899 330.48 34.5899 330.1 34.5899C328.44 34.6899 325.24 34.8999 324.24 36.6399C323.24 38.3799 324.78 41.7199 327.08 43.1199C328.316 43.875 329.788 44.1424 331.21 43.8699C332.65 43.3698 333.914 42.4633 334.85 41.2599C336.06 39.8399 336.85 39.3499 338.52 40.7199C341.93 43.4599 346.11 44.3099 350.35 44.9999C355.74 45.8799 361.05 47.1599 366.43 48.0999C369.34 48.5999 372.31 48.7499 375.24 49.0999C379.35 49.5999 383.46 50.0499 387.55 50.6899C389.859 51.1259 392.142 51.6867 394.39 52.3699C394.69 52.4599 395.13 53.1199 395.04 53.2999C394.86 53.6999 394.38 54.2099 394.04 54.2199C392.852 54.2449 391.664 54.1646 390.49 53.9799C387.74 53.5999 385 53.1399 382.25 52.7399C378.15 52.1399 374.06 51.5399 369.96 50.9799C365.28 50.3299 360.57 49.8099 355.96 49.0699C353.16 48.6399 350.41 47.9399 347.65 47.2899C345.45 46.7699 343.3 45.9399 341.07 45.6199C339.253 45.375 337.404 45.667 335.75 46.4599C333.17 47.5899 329.94 47.5199 327.01 47.4599C326.405 47.4332 325.801 47.5476 325.248 47.7941C324.694 48.0405 324.205 48.4122 323.82 48.8799C322.422 50.3159 320.925 51.6525 319.34 52.8799C317.93 53.8799 316.77 54.5999 315.34 54.4499C314.89 54.3999 314.67 54.2899 311.22 52.8799C310.739 52.6717 310.244 52.4947 309.74 52.3499L309.79 52.3699Z" fill="white"/>
</svg>
