<svg xmlns="http://www.w3.org/2000/svg" viewBox="0 0 76.51 58.73"><style><![CDATA[.A{fill:#fff}]]></style><path class="A" d="M30.37 9.35a3.29 3.29 0 1 0 3.28 3.29 3.29 3.29 0 0 0-3.28-3.29zm7.63 0a3.29 3.29 0 1 0 3.28 3.29A3.29 3.29 0 0 0 38 9.35zm7.6 0a3.29 3.29 0 1 0 3.29 3.29 3.28 3.28 0 0 0-3.29-3.29zm-8.14-3.88a3.29 3.29 0 1 0-3.28 3.28 3.28 3.28 0 0 0 3.28-3.28zm7.62 0a3.29 3.29 0 1 0-3.29 3.28 3.29 3.29 0 0 0 3.29-3.28zM30.37 17.1a3.29 3.29 0 1 0 3.28 3.28 3.29 3.29 0 0 0-3.28-3.28zm7.63 0a3.29 3.29 0 1 0 3.28 3.28A3.28 3.28 0 0 0 38 17.09zm7.6 0a3.29 3.29 0 1 0 3.29 3.28 3.28 3.28 0 0 0-3.29-3.28zm-15.23 7.73a3.29 3.29 0 1 0 3.28 3.28 3.29 3.29 0 0 0-3.28-3.28zm7.63 0a3.29 3.29 0 1 0 3.28 3.28A3.28 3.28 0 0 0 38 24.83zm7.6 0a3.29 3.29 0 1 0 3.29 3.28 3.28 3.28 0 0 0-3.29-3.28zm-15.23 7.74a3.29 3.29 0 1 0 3.28 3.28 3.29 3.29 0 0 0-3.28-3.28zm7.63 0a3.29 3.29 0 1 0 3.28 3.28A3.28 3.28 0 0 0 38 32.57zm0 7.73a3.28 3.28 0 1 0 3.28 3.28A3.28 3.28 0 0 0 38 40.31zm7.6-7.73a3.29 3.29 0 1 0 3.29 3.28 3.28 3.28 0 0 0-3.29-3.28zM38.35 58c-2.8-4.75-20.9-33.17-20.9-33.17s-4.5 13 0 24.15c4.12 10.15 18.43 9.84 20.9 9.7 2.46.13 16.77.44 20.9-9.7 4.5-11.12 0-24.15 0-24.15L38.35 58zM9.87 21A5.63 5.63 0 0 1 4 15.62C4 10.12 6.4 4 9.87 4s5.87 6.13 5.87 11.63A5.63 5.63 0 0 1 9.87 21zm9.86-5.33C19.73 9.14 16.67 0 9.87 0S0 9.14 0 15.62a9.38 9.38 0 0 0 6.36 8.72 3.6 3.6 0 0 0-.15 1.05 3.65 3.65 0 0 0 1.38 2.86 177.4 177.4 0 0 0-2.82 23.08 5.1 5.1 0 0 0 10.2 0 177.86 177.86 0 0 0-2.83-23.08 3.65 3.65 0 0 0 1.38-2.86 3.6 3.6 0 0 0-.15-1.05 9.38 9.38 0 0 0 6.36-8.72zm54.75 7.73a8.56 8.56 0 0 0 1.86-3.81 7.73 7.73 0 0 0 .15-1.06 4.78 4.78 0 0 0 0-.53v-.53c0-.6-.1-1.2-.15-1.78a64.7 64.7 0 0 0-1.18-6.84l-.4-1.7-.23-.84-.23-.83a31.8 31.8 0 0 0-1.14-3.28l.1 3.44v9.53H70.6l-1.23-13.4-1.23 13.43h-2.3L64.6 1.77 63.37 15.2H60.7V5.66l.1-3.44a34.36 34.36 0 0 0-1.1 3.28l-.24.83-.22.84-.4 1.7-.36 1.7-.3 1.7-.5 3.45-.15 1.77a8 8 0 0 0 .16 2.12 8.65 8.65 0 0 0 1.85 3.81A9.54 9.54 0 0 0 62.89 26l.6.25a3.79 3.79 0 0 0-.16 1.07 3.67 3.67 0 0 0 1.38 2.87 178.81 178.81 0 0 0-2.82 23.03 5.1 5.1 0 0 0 10.2 0 178.81 178.81 0 0 0-2.82-23.08 3.67 3.67 0 0 0 1.38-2.87 3.79 3.79 0 0 0-.16-1.07 6.5 6.5 0 0 0 .61-.25 9.34 9.34 0 0 0 3.37-2.54z"/></svg>