<svg xmlns="http://www.w3.org/2000/svg" viewBox="0 0 69.58 58.9"><style><![CDATA[.A,.B{fill:#fff}.B{fill-rule:evenodd}]]></style><path class="A" d="M48.64 38.1l.26.04"/><path class="B" d="M45.08 25.85l11.56 12.8a26.33 26.33 0 0 1-1.25 2.56 23.91 23.91 0 0 1-34.25 8l-8.32.1a29.45 29.45 0 0 0 46.46-3.76 27.14 27.14 0 0 0 1.4-2.39l2.65 2.93 6.25-.08-21.42-23.72z"/><path class="A" d="M39.207 33.006l3.37-.04.04 3.37-3.37.04zm.05 4.33l3.37-.04.04 3.37-3.37.04zm4.33-.05l3.37-.04.04 3.37-3.37.04zm-.05-4.33l3.37-.04.04 3.37-3.37.04z"/><path class="B" d="M34.32 5.57A23.88 23.88 0 0 1 58.43 28l5.3 5.86a30.34 30.34 0 0 0 .31-4.7 29.45 29.45 0 1 0-58.18 6.78A28 28 0 0 0 6.72 39L0 46.8l10.7-.12 7.3-.1h2.35l26.77-31.15-2.78 1-4.8 1.67-21.3 7.53-7.12 8.26a23.61 23.61 0 0 1-.39-3.59v-.57A23.89 23.89 0 0 1 34.32 5.57"/></svg>